<svg xmlns="http://www.w3.org/2000/svg" xmlns:xlink="http://www.w3.org/1999/xlink" width="553" height="524" viewBox="0 0 553 524">
  <defs>
    <circle id="me-a" cx="196" cy="196" r="196"/>
    <path id="me-c" d="M175.666667,205.044085 L175.666667,231.110714 L211.333333,231.110714 C251.097835,231.110714 283.333333,263.346212 283.333333,303.110714 L283.333333,345.957143 L0,345.957143 L0,303.110714 C-4.86974701e-15,263.346212 32.235498,231.110714 72,231.110714 L107.666667,231.110714 L107.666667,205.044085 C83.2295391,193.43527 65.6687949,169.701135 62.7593313,141.61658 C54.5105521,140.447313 48.1666667,133.35736 48.1666667,124.785714 L48.1666667,104.907143 C48.1666667,96.4836534 54.2931455,89.4910797 62.3333333,88.1421918 L62.3333333,79.3333333 C62.3333333,35.5187432 97.8520765,8.04860964e-15 141.666667,0 C185.481257,-8.04860964e-15 221,35.5187432 221,79.3333333 L221,88.1421918 C229.040188,89.4910797 235.166667,96.4836534 235.166667,104.907143 L235.166667,124.785714 C235.166667,133.35736 228.822781,140.447313 220.574002,141.61658 C217.664538,169.701135 200.103794,193.43527 175.666671,205.044083 Z"/>
    <path id="me-e" d="M153,18.5368923 L153,45.4181818 C153,64.1958633 168.222319,79.4181818 187,79.4181818 C205.777681,79.4181818 221,64.1958633 221,45.4181818 L221,18.5368923 C242.922865,20.9926233 260.495419,27.1195984 265.132251,41.6189705 C300.907402,45.8090512 328.666667,76.2260347 328.666667,113.126542 L328.666667,156 L45.3333333,156 L45.3333333,113.126542 C45.3333333,76.2260347 73.0925981,45.8090512 108.867749,41.6189705 C113.504581,27.1195984 131.077135,20.9926233 153,18.5368923 Z"/>
    <path id="me-g" d="M49.7502789,21.316836 C51.2489254,34.6915399 62.653482,45.0909091 76.5,45.0909091 C90.3892911,45.0909091 101.821511,34.6271916 103.263326,21.1928042 C103.379364,20.1115966 102.165386,18.3181818 100.64392,18.3181818 C79.5440676,18.3181818 63.3787219,18.3181818 52.5396679,18.3181818 C51.0093738,18.3181818 49.6003415,19.9787159 49.7502789,21.316836 Z"/>
    <path id="me-i" d="M19.875,19.7950763 C33.5177434,19.7950763 39.75,26.067402 39.75,16.2915873 C39.75,6.51577267 30.8516594,0 19.875,0 C8.8983406,0 0,6.51577267 0,16.2915873 C0,26.067402 6.23225664,19.7950763 19.875,19.7950763 Z"/>
    <path id="me-k" d="M19.875,19.7950763 C33.5177434,19.7950763 39.75,26.067402 39.75,16.2915873 C39.75,6.51577267 30.8516594,0 19.875,0 C8.8983406,0 0,6.51577267 0,16.2915873 C0,26.067402 6.23225664,19.7950763 19.875,19.7950763 Z"/>
    <rect id="me-m" width="374" height="397"/>
    <path id="me-o" d="M255.325347,56.6014361 C251.413939,52.6030654 246.872515,49.2093264 242.455293,45.8060731 C241.480641,45.0558731 240.490345,44.3237503 239.5375,43.5450075 C239.320858,43.3680422 237.101817,41.7782082 236.836348,41.1930808 C236.197325,39.785445 236.56756,40.8814885 236.655734,39.2017447 C236.767136,37.0776846 241.096659,31.0784635 237.86599,29.7027005 C236.444781,29.0975932 233.909547,30.7078828 232.546172,31.2397304 C229.879626,32.2805912 227.180371,33.1682723 224.423755,33.9336951 C225.744466,31.3010974 228.262633,26.0311449 223.529692,27.441635 C219.842511,28.5405328 216.406578,31.3657944 212.701383,32.6949375 C213.927283,30.6845729 218.829935,24.4551066 214.399913,24.1068844 C213.021368,23.9984218 209.009935,26.585351 207.525677,27.1371784 C203.080012,28.7902823 198.539062,29.8587345 193.87154,30.7002714 C178.000734,33.5616872 159.441575,32.7458388 144.757796,39.9743032 C133.43742,45.5468093 122.25926,54.1933751 115.719705,65.2037606 C109.416702,75.8164497 107.059238,87.4309911 105.73995,99.5921271 C104.771935,108.516985 104.693242,117.742494 105.145962,126.699701 C105.293866,129.634376 105.623807,143.162237 109.88554,139.065394 C112.008821,137.024108 111.993178,128.781422 112.527909,125.991364 C113.592157,120.440265 114.616585,114.864428 116.390963,109.49077 C119.517814,100.021221 123.206417,89.9341947 130.996049,83.4121647 C135.994934,79.2273144 139.505293,73.5710827 144.288958,69.3491267 C146.437838,67.4529333 144.798091,67.6503543 148.252986,67.8991524 C150.573947,68.0661278 152.905338,68.1298734 155.23104,68.1907647 C160.611063,68.3306244 165.999618,68.2949459 171.381063,68.3139745 C182.218853,68.352983 193.00592,68.5061626 203.833281,67.9386366 C208.644915,67.6865086 213.469822,67.5499788 218.268656,67.1047111 C220.949424,66.855913 225.706067,65.1371607 227.912782,66.4506053 C229.932246,67.6522572 232.029455,71.5759409 233.479582,73.1829006 C236.90556,76.9805202 240.990471,79.8809445 244.996689,82.9949641 C253.350444,89.4879756 257.56809,97.6431295 260.105219,107.790095 C262.632868,117.89948 261.924159,127.278413 265.052906,137.227006 C265.603281,138.976204 267.059097,141.991275 268.85386,139.288748 C269.187119,138.78687 269.100841,136.027836 269.100841,134.440277 C269.100841,128.031923 270.723049,123.223663 270.702665,116.773466 C270.623024,97.1617076 269.989216,71.5887851 255.325347,56.6014361 Z"/>
  </defs>
  <g fill="none" fill-rule="evenodd">
    <polygon fill="#006BFF" points="552 235.905 227.941 500 0 50"/>
    <rect width="18" height="18" x="132" y="2" fill="#FFD8C4" transform="rotate(98 141 11)"/>
    <rect width="18" height="18" x="533.165" y="318.165" fill="#FFD8C4" transform="rotate(98 542.165 327.165)"/>
    <polygon fill="#FF9CAD" points="162 19.801 183 15 178.199 36" transform="rotate(-45 172.5 25.5)"/>
    <g transform="translate(81 65)">
      <mask id="me-b" fill="#fff">
        <use xlink:href="#me-a"/>
      </mask>
      <use fill="#FFF" xlink:href="#me-a"/>
      <g mask="url(#me-b)">
        <g transform="translate(9 18)">
          <g transform="translate(45.333 51.043)">
            <mask id="me-d" fill="#fff">
              <use xlink:href="#me-c"/>
            </mask>
            <use fill="#D0C6AC" xlink:href="#me-c"/>
            <g fill="#FFDBB4" mask="url(#me-d)">
              <rect width="374" height="346" transform="translate(-45.333)"/>
            </g>
            <path fill="#000" fill-opacity=".1" d="M221,133.345238 L221,144.688095 C221,188.502685 185.481257,224.021429 141.666667,224.021429 C97.8520765,224.021429 62.3333333,188.502685 62.3333333,144.688095 L62.3333333,133.345238 C62.3333333,177.159828 97.8520765,212.678571 141.666667,212.678571 C185.481257,212.678571 221,177.159828 221,133.345238 Z" mask="url(#me-d)"/>
          </g>
          <g transform="translate(0 241.036)">
            <mask id="me-f" fill="#fff">
              <use xlink:href="#me-e"/>
            </mask>
            <use fill="#B7C1DB" xlink:href="#me-e"/>
            <g fill="#262E33" mask="url(#me-f)">
              <rect width="374" height="156"/>
            </g>
            <path fill="#F4F4F4" d="M144.5,87.5572026 L144.5,156 L134.583333,156 L134.583333,82.467645 C137.705318,84.3251726 141.02459,86.0280263 144.5,87.5572026 Z M239.416667,82.467645 L239.416667,139.696212 C239.416667,142.434624 237.196745,144.654545 234.458333,144.654545 C231.719921,144.654545 229.5,142.434624 229.5,139.696212 L229.5,87.5572026 C232.97541,86.0280263 236.294682,84.3251726 239.416667,82.467645 Z" mask="url(#me-f)"/>
            <path fill="#000" fill-opacity=".16" d="M186.989022,96.4363632 C139.587822,96.4328649 92.7916667,73.7716738 92.7916667,45.8181818 C92.7916667,30.1262735 107.538187,22.0827624 128.860186,18.0454476 C115.989696,22.7965066 107.666667,30.7831319 107.666667,44.0727273 C107.666667,72.9897142 147.072815,96.4320656 186.989022,96.436363 Z M245.139814,18.0454476 C266.461813,22.0827624 281.208333,30.1262735 281.208333,45.8181818 C281.208333,73.7716738 234.412178,96.4328649 187.010978,96.4363632 C226.927185,96.4320656 266.333333,72.9897142 266.333333,44.0727273 C266.333333,30.7831319 258.010304,22.7965066 245.139812,18.0454471 Z" mask="url(#me-f)"/>
          </g>
          <g transform="translate(107.667 116.264)">
            <g transform="translate(2.833 73.729)">
              <mask id="me-h" fill="#fff">
                <use xlink:href="#me-g"/>
              </mask>
              <use fill="#000" fill-opacity=".7" xlink:href="#me-g"/>
              <rect width="43.917" height="22.545" x="55.25" y="2.818" fill="#FFF" mask="url(#me-h)" rx="5"/>
              <g fill="#FF4F6D" mask="url(#me-h)">
                <g transform="translate(53.833 33.818)">
                  <ellipse cx="15.583" cy="15.5" rx="15.583" ry="15.5"/>
                  <ellipse cx="29.75" cy="15.5" rx="15.583" ry="15.5"/>
                </g>
              </g>
            </g>
            <path fill="#000" fill-opacity=".16" d="M22.5714286,11.3333333 C22.5714286,17.5925605 30.1506082,22.6666667 39.5,22.6666667 C48.8493918,22.6666667 56.4285714,17.5925605 56.4285714,11.3333333" transform="translate(39.667 56.714)"/>
            <g transform="translate(0 11.343)">
              <g transform="translate(22.714 18.318)">
                <mask id="me-j" fill="#fff">
                  <use xlink:href="#me-i"/>
                </mask>
                <use fill="#FFF" xlink:href="#me-i"/>
                <ellipse cx="19.875" cy="14.091" fill="#85BDFF" fill-opacity=".7" mask="url(#me-j)" rx="8.518" ry="8.455"/>
              </g>
              <g transform="translate(96.536 18.318)">
                <mask id="me-l" fill="#fff">
                  <use xlink:href="#me-k"/>
                </mask>
                <use fill="#FFF" xlink:href="#me-k"/>
                <ellipse cx="19.875" cy="14.091" fill="#85BDFF" mask="url(#me-l)" rx="8.518" ry="8.455"/>
              </g>
            </g>
            <g fill="#000" fill-opacity=".6" transform="translate(17.036 8.5)">
              <path fill-rule="nonzero" d="M5.1536519,15.8079837 C10.7114254,8.00397787 25.9481182,3.62785271 39.0728684,6.84417232 C40.5957164,7.21735779 42.1333909,6.28796018 42.5073604,4.76830466 C42.8813298,3.24864915 41.9499797,1.71419834 40.4271316,1.34101287 C25.18498,-2.39419201 7.54128428,2.67324762 0.524919532,12.5253496 C-0.383459201,13.8008591 -0.0836686274,15.5697066 1.19452052,16.4761809 C2.47270967,17.3826553 4.24527316,17.0834932 5.1536519,15.8079837 Z"/>
              <path fill-rule="nonzero" d="M87.4929376,15.8079837 C93.0507111,8.00397787 108.287404,3.62785271 121.412154,6.84417232 C122.935002,7.21735779 124.472677,6.28796018 124.846646,4.76830466 C125.220616,3.24864915 124.289265,1.71419834 122.766417,1.34101287 C107.524266,-2.39419201 89.88057,2.67324762 82.8642052,12.5253496 C81.9558265,13.8008591 82.2556171,15.5697066 83.5338062,16.4761809 C84.8119954,17.3826553 86.5845589,17.0834932 87.4929376,15.8079837 Z" transform="matrix(-1 0 0 1 207.268 0)"/>
            </g>
          </g>
          <g>
            <mask id="me-n" fill="#fff">
              <use xlink:href="#me-m"/>
            </mask>
            <g mask="url(#me-n)">
              <g transform="translate(-1.417)">
                <mask id="me-p" fill="#fff">
                  <use xlink:href="#me-o"/>
                </mask>
                <use fill="#1F3140" xlink:href="#me-o"/>
                <g mask="url(#me-p)">
                  <rect width="374" height="397" fill="#724133" transform="translate(1.417)"/>
                </g>
              </g>
            </g>
          </g>
        </g>
      </g>
    </g>
    <path stroke="#3DDCF1" stroke-linecap="round" stroke-linejoin="round" stroke-width="7" d="M200.5 31.5L152.333622 79.6663783M181.5 471.5L133.333622 519.666378M531.5 301.5L483.333622 349.666378"/>
    <circle cx="143.5" cy="47.5" r="10.5" fill="#FFA840"/>
    <circle cx="509.5" cy="353.5" r="10.5" fill="#FFA840"/>
    <polygon fill="#9CFFB9" points="530 352.801 551 348 546.199 369" transform="rotate(178 540.5 358.5)"/>
    <rect width="18" height="18" x="145.165" y="453.165" fill="#FFD8C4" transform="rotate(98 154.165 462.165)"/>
    <circle cx="124.5" cy="455.737" r="10.5" fill="#FFA840"/>
    <polygon fill="#9CFFB9" points="123.36 480.399 144.36 475.598 139.559 496.598" transform="rotate(178 133.86 486.098)"/>
  </g>
</svg>
