<?xml version="1.0" encoding="UTF-8" standalone="no"?>
<svg width="20px" height="20px" viewBox="0 0 20 20" version="1.1" xmlns="http://www.w3.org/2000/svg" xmlns:xlink="http://www.w3.org/1999/xlink">
    <g id="Page-1" stroke="none" stroke-width="1" fill="none" fill-rule="evenodd">
        <g id="Button-Black" transform="translate(0.000000, -1.000000)" fill="#bda8db">
            <path d="M9.8510706,19.3442004 C5.3112486,19.3442004 1.6179366,15.6507624 1.6179366,11.1110664 C1.6179366,6.5714124 5.3112486,2.8779324 9.8510706,2.8779324 C14.3907246,2.8779324 18.0840366,6.5714124 18.0840366,11.1110664 C18.0840366,15.6507624 14.3907246,19.3442004 9.8510706,19.3442004 M9.8510706,1.2600084 C4.4103486,1.2600084 1.26e-05,5.6703864 1.26e-05,11.1110664 C1.26e-05,16.5517884 4.4103486,20.9619984 9.8510706,20.9619984 C15.2916246,20.9619984 19.7019606,16.5517884 19.7019606,11.1110664 C19.7019606,5.6703864 15.2916246,1.2600084 9.8510706,1.2600084" id="Fill-1"></path>
            <path d="M14.895069,11.9871024 L13.585509,11.1110664 L14.895069,10.2350724 L14.895069,11.9871024 Z M10.374483,15.7004064 L10.374483,13.2588204 L12.643953,11.7410244 L14.475951,12.9662484 L10.374483,15.7004064 Z M9.851079,12.3494784 L7.999551,11.1110664 L9.851079,9.8726544 L11.702439,11.1110664 L9.851079,12.3494784 Z M9.327507,15.7004064 L5.225997,12.9662484 L7.058163,11.7410244 L9.327507,13.2588204 L9.327507,15.7004064 Z M4.806921,10.2350724 L6.116607,11.1110664 L4.806921,11.9871024 L4.806921,10.2350724 Z M9.327507,6.5217264 L9.327507,8.9633124 L7.058163,10.4814444 L5.225997,9.2558424 L9.327507,6.5217264 Z M10.374483,6.5217264 L14.475951,9.2558424 L12.643953,10.4814444 L10.374483,8.9633124 L10.374483,6.5217264 Z M15.937383,9.1869624 C15.936291,9.1792764 15.934359,9.1719264 15.933099,9.1642404 C15.930495,9.1494564 15.927807,9.1347144 15.923943,9.1203084 C15.921675,9.1116564 15.918483,9.1033404 15.915795,9.0950244 C15.911595,9.0821724 15.907437,9.0693624 15.902313,9.0568884 C15.898743,9.0482364 15.894627,9.0395844 15.890637,9.0312684 C15.885135,9.0193824 15.879423,9.0078324 15.872829,8.9966604 C15.868041,8.9883024 15.862917,8.9802804 15.857961,8.9723004 C15.850905,8.9613804 15.843681,8.9507964 15.835785,8.9405484 C15.830073,8.9328624 15.823983,8.9251764 15.817893,8.9177844 C15.809535,8.9082084 15.800883,8.8985904 15.791769,8.8896024 C15.784923,8.8825884 15.778119,8.8755324 15.770937,8.8691064 C15.761319,8.8604544 15.751407,8.8520964 15.741285,8.8441164 C15.733473,8.8380264 15.725745,8.8319364 15.717597,8.8261824 C15.714531,8.8242504 15.711843,8.8216884 15.708945,8.8197564 L10.141341,5.1080484 C9.965487,4.9907844 9.736503,4.9907844 9.560607,5.1080484 L3.993045,8.8197564 C3.990147,8.8216884 3.987417,8.8242504 3.984393,8.8261824 C3.976203,8.8319364 3.968517,8.8380264 3.960831,8.8441164 C3.950583,8.8520964 3.940629,8.8604544 3.931221,8.8691064 C3.923829,8.8755324 3.917109,8.8825884 3.910221,8.8896024 C3.901107,8.8985904 3.892455,8.9082084 3.884265,8.9177844 C3.878007,8.9251764 3.871917,8.9328624 3.866163,8.9405484 C3.858477,8.9507964 3.851085,8.9613804 3.844197,8.9723004 C3.838905,8.9802804 3.833949,8.9883024 3.829161,8.9966604 C3.822735,9.0078324 3.816981,9.0193824 3.811353,9.0312684 C3.807363,9.0395844 3.803205,9.0482364 3.799677,9.0568884 C3.794553,9.0693624 3.790395,9.0821724 3.786195,9.0950244 C3.783465,9.1033404 3.780441,9.1116564 3.778047,9.1203084 C3.774183,9.1347144 3.771621,9.1494564 3.768891,9.1642404 C3.767631,9.1719264 3.765699,9.1792764 3.764733,9.1869624 C3.761667,9.2093904 3.759945,9.2321544 3.759945,9.2552124 L3.759945,12.9669204 C3.759945,12.9899784 3.761667,13.0127424 3.764733,13.0355064 C3.765699,13.0428984 3.767631,13.0505424 3.768891,13.0578924 C3.771621,13.0726764 3.774183,13.0873764 3.778047,13.1018244 C3.780441,13.1104764 3.783465,13.1187924 3.786195,13.1271504 C3.790395,13.1399184 3.794553,13.1527704 3.799677,13.1655804 C3.803205,13.1742744 3.807363,13.1825904 3.811353,13.1909064 C3.816981,13.2027084 3.822735,13.2142584 3.829161,13.2258084 C3.833949,13.2338724 3.838905,13.2418104 3.844197,13.2498324 C3.851085,13.2607524 3.858477,13.2713364 3.866163,13.2815844 C3.871917,13.2896064 3.878007,13.2969564 3.884265,13.3043064 C3.892455,13.3139244 3.901107,13.3235424 3.910221,13.3325304 C3.917109,13.3395444 3.923829,13.3466004 3.931221,13.3529844 C3.940629,13.3617204 3.950583,13.3700364 3.960831,13.3780164 C3.968517,13.3841484 3.976203,13.3901964 3.984393,13.3959504 C3.987417,13.3978824 3.990147,13.4004444 3.993045,13.4023344 L9.560607,17.1140844 C9.648555,17.1727164 9.749817,17.2022004 9.851079,17.2022004 C9.952173,17.2022004 10.053393,17.1727164 10.141341,17.1140844 L15.708945,13.4023344 C15.711843,13.4004444 15.714531,13.3978824 15.717597,13.3959504 C15.725745,13.3901964 15.733473,13.3841484 15.741285,13.3780164 C15.751407,13.3700364 15.761319,13.3617204 15.770937,13.3529844 C15.778119,13.3466004 15.784923,13.3395444 15.791769,13.3325304 C15.800883,13.3235424 15.809535,13.3139244 15.817893,13.3043064 C15.823983,13.2969564 15.830073,13.2896064 15.835785,13.2815844 C15.843681,13.2713364 15.850905,13.2607524 15.857961,13.2498324 C15.862917,13.2418104 15.868041,13.2338724 15.872829,13.2258084 C15.879423,13.2142584 15.885135,13.2027084 15.890637,13.1909064 C15.894627,13.1825904 15.898743,13.1742744 15.902313,13.1655804 C15.907437,13.1527704 15.911595,13.1399184 15.915795,13.1271504 C15.918483,13.1187924 15.921675,13.1104764 15.923943,13.1018244 C15.927807,13.0873764 15.930495,13.0726764 15.933099,13.0578924 C15.934359,13.0505424 15.936291,13.0428984 15.937383,13.0355064 C15.940281,13.0127424 15.942087,12.9899784 15.942087,12.9669204 L15.942087,9.2552124 C15.942087,9.2321544 15.940281,9.2093904 15.937383,9.1869624 L15.937383,9.1869624 Z" id="Fill-3"></path>
        </g>
    </g>
</svg>
