<?xml version="1.0" encoding="UTF-8" standalone="no"?>
<svg width="21px" height="18px" viewBox="0 0 21 18" version="1.1" xmlns="http://www.w3.org/2000/svg" xmlns:xlink="http://www.w3.org/1999/xlink">
    <!-- Generator: Sketch 40.3 (33839) - http://www.bohemiancoding.com/sketch -->
    <defs>
        <polygon id="path-1" points="17.5818837 17.552093 0 17.552093 0 8.77604651 0 0 17.5818837 0"></polygon>
    </defs>
    <g id="Page-1" stroke="none" stroke-width="1" fill="none" fill-rule="evenodd">
        <g id="In-Black-0p5in-TM">
            <g id="Group-3">
                <mask id="mask-2" fill="white">
                    <use xlink:href="#path-1"></use>
                </mask>
                <g id="Clip-2"></g>
                <path d="M14.980814,14.9813023 L12.3753488,14.9813023 L12.3753488,10.9014419 C12.3753488,9.92860465 12.3567907,8.67690698 11.0201163,8.67690698 C9.66293023,8.67690698 9.45586047,9.73618605 9.45586047,10.8311163 L9.45586047,14.9813023 L6.85137209,14.9813023 L6.85137209,6.59155814 L9.35086047,6.59155814 L9.35086047,7.73776744 L9.387,7.73776744 C9.73472093,7.07797674 10.5859535,6.38253488 11.8542558,6.38253488 C14.4929302,6.38253488 14.980814,8.11967442 14.980814,10.3793721 L14.980814,14.9813023 L14.980814,14.9813023 Z M3.91137209,5.44388372 C3.07332558,5.44388372 2.39839535,4.76651163 2.39839535,3.93188372 C2.39839535,3.09823256 3.07332558,2.42037209 3.91137209,2.42037209 C4.74551163,2.42037209 5.42288372,3.09823256 5.42288372,3.93188372 C5.42288372,4.76651163 4.74551163,5.44388372 3.91137209,5.44388372 L3.91137209,5.44388372 Z M2.60546512,14.9813023 L5.21581395,14.9813023 L5.21581395,6.59155814 L2.60546512,6.59155814 L2.60546512,14.9813023 Z M16.2793953,0 L1.29662791,0 C0.581162791,0 0,0.567488372 0,1.26683721 L0,16.3126047 C0,17.0129302 0.581162791,17.5813953 1.29662791,17.5813953 L16.2793953,17.5813953 C16.9963256,17.5813953 17.5818837,17.0129302 17.5818837,16.3126047 L17.5818837,1.26683721 C17.5818837,0.567488372 16.9963256,0 16.2793953,0 L16.2793953,0 Z" id="Fill-1" fill="#bda8db" mask="url(#mask-2)"></path>
            </g>
            <polyline id="Fill-4" fill="#bda8db" points="18.3305581 13.9298372 18.6680233 13.9298372 18.6680233 14.9813023 18.8516512 14.9813023 18.8516512 13.9298372 19.1876512 13.9298372 19.1876512 13.7466977 18.3305581 13.7466977 18.3305581 13.9298372"></polyline>
            <polyline id="Fill-5" fill="#bda8db" points="20.3797674 13.7466977 20.0198372 14.6531163 19.659907 13.7466977 19.3991163 13.7466977 19.3991163 14.9813023 19.5812791 14.9813023 19.5812791 14.0421628 19.9587907 14.9813023 20.0808837 14.9813023 20.4583953 14.0421628 20.4583953 14.9813023 20.6410465 14.9813023 20.6410465 13.7466977 20.3797674 13.7466977"></polyline>
        </g>
    </g>
</svg>
