<svg xmlns="http://www.w3.org/2000/svg" width="63" height="100" viewBox="0 0 63 100">
  <g fill="none" fill-rule="evenodd">
    <path fill="#006BFF" fill-rule="nonzero" d="M3.13674614,3.125 L3.13674614,78.0531389 L59.8632539,78.0531389 L59.8632539,3.125 L3.13674614,3.125 Z M0,0 L63,0 L63,81.1781389 L0,81.1781389 L0,0 Z"/>
    <polygon fill="#FFF" points="3.137 3.125 3.137 78.053 59.863 78.053 59.863 3.125"/>
    <g transform="translate(7.936 11.136)">
      <path fill="#006BFF" d="M0.281206171,0 L10.0866536,0 L10.0866536,9.76872911 L19.8921011,0 L29.7281906,0 L12.0477431,18.5605853 L49.3084435,58.6123746 L39.5029961,58.6123746 L29.7281906,48.8436455 L10.0866536,48.8436455 L10.0866536,58.6123746 L0.281206171,58.6123746 L0.281206171,0 Z M10.2728039,29.3012266 L10.2728039,39.1871042 L19.9158487,39.1871042 L10.2728039,29.3012266 Z"/>
      <polygon fill="#003C8E" points=".347 19.55 29.777 48.941 39.552 58.71 49.357 58.71 .347 5.861"/>
    </g>
    <path fill="#FFF" d="M2.63221131 88.1404049L4.21604722 86.0871479 5.81976391 86.0871479 3.8383123 88.4441021 6.00531791 91.0651408 4.32207807 91.0651408 2.63221131 88.90625 2.63221131 91.0651408 1.33333333 91.0651408 1.33333333 86.0871479 2.63221131 86.0871479 2.63221131 88.1404049zM6.71439925 91.0651408L6.71439925 86.0871479 8.01327723 86.0871479 10.4122253 89.1307218 10.4122253 86.0871479 11.7044764 86.0871479 11.7044764 91.0651408 10.4122253 91.0651408 8.01327723 88.0215669 8.01327723 91.0651408 6.71439925 91.0651408zM14.0769168 88.5761444C14.0769168 88.7742087 14.114469 88.9568654 14.1895746 89.1241197 14.2646801 89.2913741 14.366292 89.4366191 14.4944133 89.5598592 14.6225345 89.6830992 14.7716389 89.7788289 14.9417309 89.8470511 15.111823 89.9152732 15.2918527 89.9493838 15.4818256 89.9493838 15.6717985 89.9493838 15.8518283 89.9152732 16.0219203 89.8470511 16.1920123 89.7788289 16.3422212 89.6830992 16.4725514 89.5598592 16.6028817 89.4366191 16.705598 89.2913741 16.7807036 89.1241197 16.8558092 88.9568654 16.8933614 88.7742087 16.8933614 88.5761444 16.8933614 88.37808 16.8558092 88.1954234 16.7807036 88.028169 16.705598 87.8609147 16.6028817 87.7156696 16.4725514 87.5924296 16.3422212 87.4691895 16.1920123 87.3734598 16.0219203 87.3052377 15.8518283 87.2370155 15.6717985 87.2029049 15.4818256 87.2029049 15.2918527 87.2029049 15.111823 87.2370155 14.9417309 87.3052377 14.7716389 87.3734598 14.6225345 87.4691895 14.4944133 87.5924296 14.366292 87.7156696 14.2646801 87.8609147 14.1895746 88.028169 14.114469 88.1954234 14.0769168 88.37808 14.0769168 88.5761444zM12.7183964 88.5761444C12.7183964 88.2064242 12.786874 87.8620174 12.9238312 87.5429137 13.0607884 87.22381 13.2507585 86.9454237 13.4937471 86.7077465 13.7367357 86.4700692 14.0272131 86.2841116 14.3651882 86.149868 14.7031632 86.0156243 15.075372 85.9485035 15.4818256 85.9485035 15.8838613 85.9485035 16.2549656 86.0156243 16.5951496 86.149868 16.9353336 86.2841116 17.22802 86.4700692 17.4732176 86.7077465 17.7184152 86.9454237 17.9094897 87.22381 18.0464469 87.5429137 18.1834041 87.8620174 18.2518817 88.2064242 18.2518817 88.5761444 18.2518817 88.9458645 18.1834041 89.2902713 18.0464469 89.609375 17.9094897 89.9284787 17.7184152 90.206865 17.4732176 90.4445423 17.22802 90.6822195 16.9353336 90.8681771 16.5951496 91.0024208 16.2549656 91.1366644 15.8838613 91.2037852 15.4818256 91.2037852 15.075372 91.2037852 14.7031632 91.1366644 14.3651882 91.0024208 14.0272131 90.8681771 13.7367357 90.6822195 13.4937471 90.4445423 13.2507585 90.206865 13.0607884 89.9284787 12.9238312 89.609375 12.786874 89.2902713 12.7183964 88.9458645 12.7183964 88.5761444zM21.0484455 87.1830986L21.0484455 91.0651408 19.7495676 91.0651408 19.7495676 87.1830986 18.6826321 87.1830986 18.6826321 86.0871479 22.115381 86.0871479 22.115381 87.1830986 21.0484455 87.1830986zM24.7197639 87.1830986L24.7197639 91.0651408 23.4208859 91.0651408 23.4208859 87.1830986 22.3539504 87.1830986 22.3539504 86.0871479 25.7866994 86.0871479 25.7866994 87.1830986 24.7197639 87.1830986zM30.431849 89.2165493L29.8486793 87.559419 29.2655096 89.2165493 30.431849 89.2165493zM30.7764493 90.2002641L28.9209093 90.2002641 28.6226975 91.0651408 27.2376695 91.0651408 29.1395979 86.0871479 30.5577606 86.0871479 32.4596891 91.0651408 31.0746611 91.0651408 30.7764493 90.2002641zM33.6657901 86.0871479L34.8718911 89.1175176 36.084619 86.0871479 37.4961547 86.0871479 35.3887915 91.0651408 34.3549906 91.0651408 32.2542543 86.0871479 33.6657901 86.0871479zM40.995173 87.1830986L39.4510986 87.1830986 39.4510986 88.0149648 40.9090229 88.0149648 40.9090229 89.1109155 39.4510986 89.1109155 39.4510986 89.9691901 40.995173 89.9691901 40.995173 91.0651408 38.1522207 91.0651408 38.1522207 86.0871479 40.995173 86.0871479 40.995173 87.1830986zM43.3609864 88.3120599L43.6061828 88.3120599C43.8624253 88.3120599 44.0590222 88.2592435 44.1959794 88.1536092 44.3329366 88.0479748 44.4014142 87.8961278 44.4014142 87.6980634 44.4014142 87.499999 44.3329366 87.3481519 44.1959794 87.2425176 44.0590222 87.1368833 43.8624253 87.0840669 43.6061828 87.0840669L43.3609864 87.0840669 43.3609864 88.3120599zM46.2171926 91.0651408L44.6002221 91.0651408 43.3609864 89.1505282 43.3609864 91.0651408 42.0621085 91.0651408 42.0621085 86.0871479 44.0833216 86.0871479C44.361654 86.0871479 44.604639 86.1278605 44.8122838 86.209287 45.0199286 86.2907134 45.1911225 86.4018479 45.3258707 86.5426937 45.460619 86.6835394 45.5622308 86.8463899 45.6307094 87.03125 45.699188 87.2161101 45.7334268 87.4141715 45.7334268 87.6254401 45.7334268 88.0039632 45.6417552 88.3109583 45.4584093 88.5464349 45.2750634 88.7819114 45.0044665 88.9414608 44.6466106 89.025088L46.2171926 91.0651408zM49.61018 89.2165493L49.0270103 87.559419 48.4438406 89.2165493 49.61018 89.2165493zM49.9547803 90.2002641L48.0992403 90.2002641 47.8010285 91.0651408 46.4160005 91.0651408 48.3179289 86.0871479 49.7360916 86.0871479 51.6380201 91.0651408 50.2529921 91.0651408 49.9547803 90.2002641zM54.613511 88.2790493L57.1913862 88.2790493C57.1913862 88.5431351 57.1803414 88.7830095 57.1582515 88.9986796 57.1361616 89.2143497 57.0919826 89.4146118 57.0257129 89.5994718 56.9329355 89.8591562 56.8070251 90.0891275 56.647978 90.2893926 56.4889309 90.4896577 56.3022743 90.6569095 56.0880026 90.7911532 55.8737308 90.9253968 55.6384772 91.0277285 55.3822347 91.0981514 55.1259922 91.1685743 54.8564998 91.2037852 54.5737494 91.2037852 54.1849677 91.2037852 53.8304305 91.1399654 53.5101274 91.0123239 53.1898243 90.8846825 52.9148095 90.7053269 52.6850748 90.4742518 52.4553401 90.2431767 52.2764149 89.9658907 52.1482936 89.6423856 52.0201723 89.3188804 51.9561127 88.9612696 51.9561127 88.5695423 51.9561127 88.1822164 52.0190679 87.8268062 52.1449801 87.5033011 52.2708924 87.1797959 52.4498177 86.9036103 52.6817613 86.6747359 52.913705 86.4458615 53.1931377 86.2676063 53.5200678 86.1399648 53.8469979 86.0123233 54.2114753 85.9485035 54.613511 85.9485035 55.134832 85.9485035 55.5920855 86.0607383 55.9852852 86.2852113 56.3784849 86.5096842 56.6899474 86.857392 56.9196821 87.3283451L55.6870734 87.8367077C55.5722061 87.5638191 55.4231017 87.3679583 55.2397557 87.2491197 55.0564098 87.1302811 54.8476636 87.0708627 54.613511 87.0708627 54.4191201 87.0708627 54.2424038 87.1071739 54.0833567 87.1797975 53.9243096 87.2524211 53.788459 87.3558532 53.6758006 87.4900968 53.5631423 87.6243405 53.4747841 87.7860906 53.4107235 87.9753521 53.3466628 88.1646136 53.314633 88.3758791 53.314633 88.6091549 53.314633 88.8204236 53.3422449 89.0162843 53.3974696 89.196743 53.4526943 89.3772016 53.5355301 89.53345 53.6459794 89.665493 53.7564288 89.7975359 53.8933839 89.8998676 54.056849 89.9724912 54.220314 90.0451148 54.4102841 90.0814261 54.6267648 90.0814261 54.7548861 90.0814261 54.8785875 90.0671216 54.9978728 90.0385123 55.1171581 90.009903 55.2242924 89.9636887 55.3192789 89.899868 55.4142653 89.8360472 55.4926832 89.7535216 55.5545348 89.6522887 55.6163865 89.5510558 55.6583566 89.4278176 55.6804465 89.2825704L54.613511 89.2825704 54.613511 88.2790493zM60.9886162 87.1830986L59.4445418 87.1830986 59.4445418 88.0149648 60.9024661 88.0149648 60.9024661 89.1109155 59.4445418 89.1109155 59.4445418 89.9691901 60.9886162 89.9691901 60.9886162 91.0651408 58.1456639 91.0651408 58.1456639 86.0871479 60.9886162 86.0871479 60.9886162 87.1830986zM5.02173091 96.6035655L3.5528912 96.6035655 3.5528912 97.4806235 4.97901829 97.4806235 4.97901829 97.9983478 3.5528912 97.9983478 3.5528912 99.2181912 5.02173091 99.2181912 5.02173091 99.7359155 3 99.7359155 3 96.0858412 5.02173091 96.0858412 5.02173091 96.6035655zM6.63579355 97.828137L5.62730102 96.0858412 6.25612577 96.0858412 6.95613824 97.322233 7.69174455 96.0858412 8.32531516 96.0858412 7.26936415 97.828137 8.37751948 99.7359155 7.75818642 99.7359155 6.94664654 98.3387692 6.11137743 99.7359155 5.4849256 99.7359155 6.63579355 97.828137zM9.54547248 98.2536638L9.54547248 99.7359155 8.99258128 99.7359155 8.99258128 96.0858412 9.61903311 96.0858412C9.92593276 96.0858412 10.157686 96.1071173 10.3142997 96.1496702 10.4724954 96.1922231 10.6117055 96.2725996 10.7319343 96.3908021 10.9423346 96.5956864 11.0475331 96.8541519 11.0475331 97.1662065 11.0475331 97.5003255 10.9352159 97.7650951 10.710578 97.9605231 10.4859401 98.1559512 10.1829999 98.2536638 9.80174822 98.2536638L9.54547248 98.2536638zM9.54547248 97.7430317L9.75191683 97.7430317C10.259725 97.7430317 10.5136253 97.5483945 10.5136253 97.1591144 10.5136253 96.7824425 10.2518154 96.5941093 9.72818759 96.5941093L9.54547248 96.5941093 9.54547248 97.7430317zM13.7602594 96.6035655L12.2914197 96.6035655 12.2914197 97.4806235 13.7175468 97.4806235 13.7175468 97.9983478 12.2914197 97.9983478 12.2914197 99.2181912 13.7602594 99.2181912 13.7602594 99.7359155 11.7385285 99.7359155 11.7385285 96.0858412 13.7602594 96.0858412 13.7602594 96.6035655zM15.8489067 98.1803787L16.9831642 99.7359155 16.306881 99.7359155 15.2604217 98.2418436 15.1607589 98.2418436 15.1607589 99.7359155 14.6078677 99.7359155 14.6078677 96.0858412 15.2556758 96.0858412C15.7397547 96.0858412 16.0893619 96.1764618 16.3045081 96.3577056 16.5418016 96.5594378 16.6604466 96.8257834 16.6604466 97.1567503 16.6604466 97.4152197 16.5860958 97.6374371 16.4373918 97.823409 16.2886878 98.0093809 16.0925281 98.1283696 15.8489067 98.1803787zM15.1607589 97.761944L15.3363552 97.761944C15.859983 97.761944 16.121793 97.5625788 16.121793 97.1638424 16.121793 96.7903226 15.8671017 96.6035655 15.3577116 96.6035655L15.1607589 96.6035655 15.1607589 97.761944zM18.2080674 96.0858412L18.2080674 99.7359155 17.6551762 99.7359155 17.6551762 96.0858412 18.2080674 96.0858412zM21.2316467 96.6035655L19.7628069 96.6035655 19.7628069 97.4806235 21.188934 97.4806235 21.188934 97.9983478 19.7628069 97.9983478 19.7628069 99.2181912 21.2316467 99.2181912 21.2316467 99.7359155 19.2099157 99.7359155 19.2099157 96.0858412 21.2316467 96.0858412 21.2316467 96.6035655zM22.079255 99.7359155L22.079255 95.8376173 24.7511669 98.6224537 24.7511669 96.0858412 25.3040581 96.0858412 25.3040581 99.958135 22.6321462 97.1803907 22.6321462 99.7359155 22.079255 99.7359155zM29.0442603 96.2820564L29.0442603 96.9345308C28.724705 96.6681812 28.394081 96.5350084 28.0523783 96.5350084 27.6758725 96.5350084 27.3586949 96.6697572 27.1008359 96.9392588 26.841395 97.2071845 26.7116764 97.5349944 26.7116764 97.9226985 26.7116764 98.3056746 26.841395 98.6287565 27.1008359 98.891954 27.3602768 99.1551515 27.6782454 99.2867483 28.0547512 99.2867483 28.2493319 99.2867483 28.4146439 99.2552281 28.5506922 99.1921868 28.6266262 99.1606662 28.7053273 99.1181139 28.7867981 99.0645288 28.8682689 99.0109437 28.9540888 98.9463273 29.0442603 98.8706777L29.0442603 99.5349723C28.7278689 99.713064 28.395663 99.8021085 28.0476324 99.8021085 27.5240047 99.8021085 27.0771085 99.6200795 26.7069306 99.2560158 26.3383346 98.8888001 26.1540394 98.4459415 26.1540394 97.9274266 26.1540394 97.4624969 26.3082779 97.0480064 26.6167595 96.6839428 26.9964292 96.2379254 27.4876194 96.0149201 28.090345 96.0149201 28.4193921 96.0149201 28.7373607 96.1039646 29.0442603 96.2820564zM31.8851245 96.6035655L30.4162848 96.6035655 30.4162848 97.4806235 31.8424118 97.4806235 31.8424118 97.9983478 30.4162848 97.9983478 30.4162848 99.2181912 31.8851245 99.2181912 31.8851245 99.7359155 29.8633936 99.7359155 29.8633936 96.0858412 31.8851245 96.0858412 31.8851245 96.6035655zM33.8539142 99.7359155L33.8539142 96.0858412 34.6227414 96.0858412C34.9913374 96.0858412 35.2824131 96.1220894 35.4959773 96.194587 35.7253611 96.2655084 35.9333853 96.3860732 36.1200562 96.5562847 36.498144 96.8998599 36.687185 97.3513866 36.687185 97.9108784 36.687185 98.4719461 36.4902343 98.9258368 36.096327 99.2725641 35.8985824 99.4459277 35.6913491 99.5664924 35.474621 99.6342619 35.2721305 99.7020313 34.9850096 99.7359155 34.6132497 99.7359155L33.8539142 99.7359155zM34.4068054 99.2181912L34.6559624 99.2181912C34.9043296 99.2181912 35.1107719 99.1921871 35.2752954 99.140178 35.439819 99.0850168 35.5885207 98.9975483 35.7214051 98.8777698 35.9935017 98.6303326 36.1295479 98.3080387 36.1295479 97.9108784 36.1295479 97.510566 35.9950836 97.185908 35.7261509 96.9368948 35.4841115 96.7146741 35.1273856 96.6035655 34.6559624 96.6035655L34.4068054 96.6035655 34.4068054 99.2181912zM39.5256762 96.6035655L38.0568365 96.6035655 38.0568365 97.4806235 39.4829636 97.4806235 39.4829636 97.9983478 38.0568365 97.9983478 38.0568365 99.2181912 39.5256762 99.2181912 39.5256762 99.7359155 37.5039453 99.7359155 37.5039453 96.0858412 39.5256762 96.0858412 39.5256762 96.6035655zM42.4448468 96.6295699L41.9963643 96.8943421C41.9125205 96.7493471 41.8326329 96.6547865 41.756699 96.6106576 41.6776011 96.5602245 41.5755664 96.5350084 41.4505918 96.5350084 41.297142 96.5350084 41.1697964 96.5783486 41.0685511 96.6650305 40.9673059 96.7501363 40.916684 96.8573049 40.916684 96.9865396 40.916684 97.1646313 41.0495664 97.3080482 41.3153352 97.4167945L41.6807654 97.5657288C41.9781733 97.6855074 42.1956892 97.8316822 42.3333194 98.0042578 42.4709497 98.1768335 42.5397638 98.3884127 42.5397638 98.639002 42.5397638 98.974697 42.4274465 99.2520747 42.2028086 99.4711433 41.9765888 99.6917879 41.6957956 99.8021085 41.3604207 99.8021085 41.0424474 99.8021085 40.7798465 99.708336 40.5726101 99.5207881 40.3685376 99.3332401 40.241192 99.0692586 40.1905694 98.7288354L40.7505794 98.6059055C40.7758907 98.8202459 40.8201848 98.9683908 40.8834631 99.0503445 40.997364 99.2079479 41.163467 99.2867483 41.381777 99.2867483 41.5542104 99.2867483 41.6973753 99.229224 41.8112762 99.1141736 41.9251771 98.9991232 41.9821267 98.8533423 41.9821267 98.6768266 41.9821267 98.6059051 41.9722396 98.5408947 41.9524652 98.4817935 41.9326907 98.4226922 41.901843 98.3683199 41.8599211 98.3186749 41.8179993 98.2690298 41.7638181 98.2225375 41.6973759 98.1791966 41.6309337 98.1358557 41.551837 98.0944855 41.4600835 98.0550847L41.1065179 97.9085143C40.6050375 97.6973259 40.3543011 97.388428 40.3543011 96.9818115 40.3543011 96.7075818 40.4594997 96.4782724 40.6699 96.2938765 40.8803002 96.1079046 41.1421102 96.0149201 41.4553377 96.0149201 41.8777202 96.0149201 42.2075533 96.2198013 42.4448468 96.6295699zM43.8809402 96.0858412L43.8809402 99.7359155 43.328049 99.7359155 43.328049 96.0858412 43.8809402 96.0858412zM46.7668899 97.8352291L48.2808151 97.8352291 48.2808151 97.9557951C48.2808151 98.2300248 48.2483855 98.4727303 48.1835253 98.6839187 48.120247 98.8793468 48.0134665 99.0621639 47.8631806 99.2323755 47.5230598 99.6137754 47.0904011 99.8044726 46.5651914 99.8044726 46.0526373 99.8044726 45.6136508 99.6200795 45.2482188 99.2512878 44.8827867 98.88092 44.7000734 98.4364853 44.7000734 97.9179705 44.7000734 97.3884234 44.8859506 96.9392607 45.2577105 96.570469 45.6294704 96.2001012 46.0819033 96.0149201 46.6150228 96.0149201 46.901357 96.0149201 47.1687037 96.0732324 47.4170709 96.1898589 47.6543645 96.3064853 47.8876996 96.4956065 48.1170834 96.7572279L47.7231781 97.1331099C47.4226063 96.7343736 47.0563887 96.5350084 46.6245145 96.5350084 46.236935 96.5350084 45.9118477 96.6681812 45.6492429 96.9345308 45.386638 97.1961523 45.2553375 97.5239622 45.2553375 97.9179705 45.2553375 98.324587 45.4016664 98.659489 45.6943284 98.9226865 45.968007 99.1669716 46.2646194 99.2891124 46.5841748 99.2891124 46.8562714 99.2891124 47.10068 99.1977038 47.3174082 99.014884 47.5341363 98.8304881 47.6551542 98.6098468 47.6804655 98.3529534L46.7668899 98.3529534 46.7668899 97.8352291zM49.0975754 99.7359155L49.0975754 95.8376173 51.7694874 98.6224537 51.7694874 96.0858412 52.3223786 96.0858412 52.3223786 99.958135 49.6504666 97.1803907 49.6504666 99.7359155 49.0975754 99.7359155zM55.343585 96.6035655L53.8747452 96.6035655 53.8747452 97.4806235 55.3008723 97.4806235 55.3008723 97.9983478 53.8747452 97.9983478 53.8747452 99.2181912 55.343585 99.2181912 55.343585 99.7359155 53.321854 99.7359155 53.321854 96.0858412 55.343585 96.0858412 55.343585 96.6035655zM57.4322323 98.1803787L58.5664898 99.7359155 57.8902066 99.7359155 56.8437473 98.2418436 56.7440845 98.2418436 56.7440845 99.7359155 56.1911933 99.7359155 56.1911933 96.0858412 56.8390014 96.0858412C57.3230802 96.0858412 57.6726875 96.1764618 57.8878336 96.3577056 58.1251272 96.5594378 58.2437722 96.8257834 58.2437722 97.1567503 58.2437722 97.4152197 58.1694213 97.6374371 58.0207174 97.823409 57.8720134 98.0093809 57.6758537 98.1283696 57.4322323 98.1803787zM56.7440845 97.761944L56.9196808 97.761944C57.4433086 97.761944 57.7051185 97.5625788 57.7051185 97.1638424 57.7051185 96.7903226 57.4504273 96.6035655 56.9410371 96.6035655L56.7440845 96.6035655 56.7440845 97.761944z"/>
  </g>
</svg>
