<svg xmlns="http://www.w3.org/2000/svg" width="63" height="90" viewBox="0 0 63 90">
  <g fill="none" fill-rule="evenodd">
    <path fill="#00D4FF" fill-rule="nonzero" d="M3.13674614,3.125 L3.13674614,78.0531389 L59.8632539,78.0531389 L59.8632539,3.125 L3.13674614,3.125 Z M0,0 L63,0 L63,81.1781389 L0,81.1781389 L0,0 Z"/>
    <polygon fill="#FFF" points="3.137 3.125 3.137 78.053 59.863 78.053 59.863 3.125"/>
    <g transform="translate(7.936 11.136)">
      <path fill="#00D4FF" d="M0.281206171,0 L10.0866536,0 L10.0866536,9.76872911 L19.8921011,0 L29.7281906,0 L12.0477431,18.5605853 L49.3084435,58.6123746 L39.5029961,58.6123746 L29.7281906,48.8436455 L10.0866536,48.8436455 L10.0866536,58.6123746 L0.281206171,58.6123746 L0.281206171,0 Z M10.2728039,29.3012266 L10.2728039,39.1871042 L19.9158487,39.1871042 L10.2728039,29.3012266 Z"/>
      <polygon fill="#004B76" points=".347 19.55 29.777 48.941 39.552 58.71 49.357 58.71 .347 5.861"/>
    </g>
    <path fill="#FFF" d="M2.63221131,86.1404049 L4.21604722,84.0871479 L5.81976391,84.0871479 L3.8383123,86.4441021 L6.00531791,89.0651408 L4.32207807,89.0651408 L2.63221131,86.90625 L2.63221131,89.0651408 L1.33333333,89.0651408 L1.33333333,84.0871479 L2.63221131,84.0871479 L2.63221131,86.1404049 Z M6.71439925,89.0651408 L6.71439925,84.0871479 L8.01327723,84.0871479 L10.4122253,87.1307218 L10.4122253,84.0871479 L11.7044764,84.0871479 L11.7044764,89.0651408 L10.4122253,89.0651408 L8.01327723,86.0215669 L8.01327723,89.0651408 L6.71439925,89.0651408 Z M14.0769168,86.5761444 C14.0769168,86.7742087 14.114469,86.9568654 14.1895746,87.1241197 C14.2646801,87.2913741 14.366292,87.4366191 14.4944133,87.5598592 C14.6225345,87.6830992 14.7716389,87.7788289 14.9417309,87.8470511 C15.111823,87.9152732 15.2918527,87.9493838 15.4818256,87.9493838 C15.6717985,87.9493838 15.8518283,87.9152732 16.0219203,87.8470511 C16.1920123,87.7788289 16.3422212,87.6830992 16.4725514,87.5598592 C16.6028817,87.4366191 16.705598,87.2913741 16.7807036,87.1241197 C16.8558092,86.9568654 16.8933614,86.7742087 16.8933614,86.5761444 C16.8933614,86.37808 16.8558092,86.1954234 16.7807036,86.028169 C16.705598,85.8609147 16.6028817,85.7156696 16.4725514,85.5924296 C16.3422212,85.4691895 16.1920123,85.3734598 16.0219203,85.3052377 C15.8518283,85.2370155 15.6717985,85.2029049 15.4818256,85.2029049 C15.2918527,85.2029049 15.111823,85.2370155 14.9417309,85.3052377 C14.7716389,85.3734598 14.6225345,85.4691895 14.4944133,85.5924296 C14.366292,85.7156696 14.2646801,85.8609147 14.1895746,86.028169 C14.114469,86.1954234 14.0769168,86.37808 14.0769168,86.5761444 Z M12.7183964,86.5761444 C12.7183964,86.2064242 12.786874,85.8620174 12.9238312,85.5429137 C13.0607884,85.22381 13.2507585,84.9454237 13.4937471,84.7077465 C13.7367357,84.4700692 14.0272131,84.2841116 14.3651882,84.149868 C14.7031632,84.0156243 15.075372,83.9485035 15.4818256,83.9485035 C15.8838613,83.9485035 16.2549656,84.0156243 16.5951496,84.149868 C16.9353336,84.2841116 17.22802,84.4700692 17.4732176,84.7077465 C17.7184152,84.9454237 17.9094897,85.22381 18.0464469,85.5429137 C18.1834041,85.8620174 18.2518817,86.2064242 18.2518817,86.5761444 C18.2518817,86.9458645 18.1834041,87.2902713 18.0464469,87.609375 C17.9094897,87.9284787 17.7184152,88.206865 17.4732176,88.4445423 C17.22802,88.6822195 16.9353336,88.8681771 16.5951496,89.0024208 C16.2549656,89.1366644 15.8838613,89.2037852 15.4818256,89.2037852 C15.075372,89.2037852 14.7031632,89.1366644 14.3651882,89.0024208 C14.0272131,88.8681771 13.7367357,88.6822195 13.4937471,88.4445423 C13.2507585,88.206865 13.0607884,87.9284787 12.9238312,87.609375 C12.786874,87.2902713 12.7183964,86.9458645 12.7183964,86.5761444 Z M21.0484455,85.1830986 L21.0484455,89.0651408 L19.7495676,89.0651408 L19.7495676,85.1830986 L18.6826321,85.1830986 L18.6826321,84.0871479 L22.115381,84.0871479 L22.115381,85.1830986 L21.0484455,85.1830986 Z M24.7197639,85.1830986 L24.7197639,89.0651408 L23.4208859,89.0651408 L23.4208859,85.1830986 L22.3539504,85.1830986 L22.3539504,84.0871479 L25.7866994,84.0871479 L25.7866994,85.1830986 L24.7197639,85.1830986 Z M30.431849,87.2165493 L29.8486793,85.559419 L29.2655096,87.2165493 L30.431849,87.2165493 Z M30.7764493,88.2002641 L28.9209093,88.2002641 L28.6226975,89.0651408 L27.2376695,89.0651408 L29.1395979,84.0871479 L30.5577606,84.0871479 L32.4596891,89.0651408 L31.0746611,89.0651408 L30.7764493,88.2002641 Z M33.6657901,84.0871479 L34.8718911,87.1175176 L36.084619,84.0871479 L37.4961547,84.0871479 L35.3887915,89.0651408 L34.3549906,89.0651408 L32.2542543,84.0871479 L33.6657901,84.0871479 Z M40.995173,85.1830986 L39.4510986,85.1830986 L39.4510986,86.0149648 L40.9090229,86.0149648 L40.9090229,87.1109155 L39.4510986,87.1109155 L39.4510986,87.9691901 L40.995173,87.9691901 L40.995173,89.0651408 L38.1522207,89.0651408 L38.1522207,84.0871479 L40.995173,84.0871479 L40.995173,85.1830986 Z M43.3609864,86.3120599 L43.6061828,86.3120599 C43.8624253,86.3120599 44.0590222,86.2592435 44.1959794,86.1536092 C44.3329366,86.0479748 44.4014142,85.8961278 44.4014142,85.6980634 C44.4014142,85.499999 44.3329366,85.3481519 44.1959794,85.2425176 C44.0590222,85.1368833 43.8624253,85.0840669 43.6061828,85.0840669 L43.3609864,85.0840669 L43.3609864,86.3120599 Z M46.2171926,89.0651408 L44.6002221,89.0651408 L43.3609864,87.1505282 L43.3609864,89.0651408 L42.0621085,89.0651408 L42.0621085,84.0871479 L44.0833216,84.0871479 C44.361654,84.0871479 44.604639,84.1278605 44.8122838,84.209287 C45.0199286,84.2907134 45.1911225,84.4018479 45.3258707,84.5426937 C45.460619,84.6835394 45.5622308,84.8463899 45.6307094,85.03125 C45.699188,85.2161101 45.7334268,85.4141715 45.7334268,85.6254401 C45.7334268,86.0039632 45.6417552,86.3109583 45.4584093,86.5464349 C45.2750634,86.7819114 45.0044665,86.9414608 44.6466106,87.025088 L46.2171926,89.0651408 Z M49.61018,87.2165493 L49.0270103,85.559419 L48.4438406,87.2165493 L49.61018,87.2165493 Z M49.9547803,88.2002641 L48.0992403,88.2002641 L47.8010285,89.0651408 L46.4160005,89.0651408 L48.3179289,84.0871479 L49.7360916,84.0871479 L51.6380201,89.0651408 L50.2529921,89.0651408 L49.9547803,88.2002641 Z M54.613511,86.2790493 L57.1913862,86.2790493 C57.1913862,86.5431351 57.1803414,86.7830095 57.1582515,86.9986796 C57.1361616,87.2143497 57.0919826,87.4146118 57.0257129,87.5994718 C56.9329355,87.8591562 56.8070251,88.0891275 56.647978,88.2893926 C56.4889309,88.4896577 56.3022743,88.6569095 56.0880026,88.7911532 C55.8737308,88.9253968 55.6384772,89.0277285 55.3822347,89.0981514 C55.1259922,89.1685743 54.8564998,89.2037852 54.5737494,89.2037852 C54.1849677,89.2037852 53.8304305,89.1399654 53.5101274,89.0123239 C53.1898243,88.8846825 52.9148095,88.7053269 52.6850748,88.4742518 C52.4553401,88.2431767 52.2764149,87.9658907 52.1482936,87.6423856 C52.0201723,87.3188804 51.9561127,86.9612696 51.9561127,86.5695423 C51.9561127,86.1822164 52.0190679,85.8268062 52.1449801,85.5033011 C52.2708924,85.1797959 52.4498177,84.9036103 52.6817613,84.6747359 C52.913705,84.4458615 53.1931377,84.2676063 53.5200678,84.1399648 C53.8469979,84.0123233 54.2114753,83.9485035 54.613511,83.9485035 C55.134832,83.9485035 55.5920855,84.0607383 55.9852852,84.2852113 C56.3784849,84.5096842 56.6899474,84.857392 56.9196821,85.3283451 L55.6870734,85.8367077 C55.5722061,85.5638191 55.4231017,85.3679583 55.2397557,85.2491197 C55.0564098,85.1302811 54.8476636,85.0708627 54.613511,85.0708627 C54.4191201,85.0708627 54.2424038,85.1071739 54.0833567,85.1797975 C53.9243096,85.2524211 53.788459,85.3558532 53.6758006,85.4900968 C53.5631423,85.6243405 53.4747841,85.7860906 53.4107235,85.9753521 C53.3466628,86.1646136 53.314633,86.3758791 53.314633,86.6091549 C53.314633,86.8204236 53.3422449,87.0162843 53.3974696,87.196743 C53.4526943,87.3772016 53.5355301,87.53345 53.6459794,87.665493 C53.7564288,87.7975359 53.8933839,87.8998676 54.056849,87.9724912 C54.220314,88.0451148 54.4102841,88.0814261 54.6267648,88.0814261 C54.7548861,88.0814261 54.8785875,88.0671216 54.9978728,88.0385123 C55.1171581,88.009903 55.2242924,87.9636887 55.3192789,87.899868 C55.4142653,87.8360472 55.4926832,87.7535216 55.5545348,87.6522887 C55.6163865,87.5510558 55.6583566,87.4278176 55.6804465,87.2825704 L54.613511,87.2825704 L54.613511,86.2790493 Z M60.9886162,85.1830986 L59.4445418,85.1830986 L59.4445418,86.0149648 L60.9024661,86.0149648 L60.9024661,87.1109155 L59.4445418,87.1109155 L59.4445418,87.9691901 L60.9886162,87.9691901 L60.9886162,89.0651408 L58.1456639,89.0651408 L58.1456639,84.0871479 L60.9886162,84.0871479 L60.9886162,85.1830986 Z"/>
  </g>
</svg>
