<?xml version="1.0" encoding="utf-8"?>
<!-- Generator: Adobe Illustrator 15.1.0, SVG Export Plug-In . SVG Version: 6.00 Build 0)  -->
<!DOCTYPE svg PUBLIC "-//W3C//DTD SVG 1.1//EN" "http://www.w3.org/Graphics/SVG/1.1/DTD/svg11.dtd">
<svg version="1.1" id="Layer_1" xmlns="http://www.w3.org/2000/svg" xmlns:xlink="http://www.w3.org/1999/xlink" x="0px" y="0px"
	 width="215px" height="129px" viewBox="0 0 215 129" enable-background="new 0 0 215 129" xml:space="preserve">
<path fill="#FFFFFF" d="M34.344,17.905c3.135,43.405,5.391,73.582,6.751,90.494"/>
<g>
	<linearGradient id="SVGID_1_" gradientUnits="userSpaceOnUse" x1="77.9302" y1="-17.2998" x2="129.382" y2="124.063">
		<stop  offset="0" style="stop-color:#ED1C24"/>
		<stop  offset="1" style="stop-color:#AC1F23"/>
	</linearGradient>
	<path fill="url(#SVGID_1_)" d="M209.685,25.194c-4.871-0.933-8.541-3.234-10.913-6.847c-1.557-2.37-2.146-4.773-2.308-5.949
		C156.979,5.046,116.904,1.318,77.35,1.318c-18.271,0-36.695,0.801-54.771,2.38c0.516,11.422-6.005,15.418-9.708,16.761
		c0,0-1.019,0.335-1.346,0.417c-0.329,0.082-1.532,0.385-1.532,0.385c-1.983,0.478-4.012,0.953-6.06,1.417
		c2.277,1.183,4.594,2.549,6.91,4.075l0.666,0.44l-0.558,0.571c-2.621,2.683-5.275,5.182-7.905,7.445
		c3.149,0.619,9.658,2.396,9.658,2.396s-0.578,0.994-0.695,1.159c-2.432,3.396-5.13,6.422-8.037,9.013
		c2.812,1.144,5.695,2.433,8.584,3.838l0.744,0.362l-0.519,0.644c-2.611,3.242-5.532,6.126-8.693,8.589
		c2.656,0.796,5.462,1.725,8.363,2.765l0.846,0.303l-0.544,0.716c-2.401,3.154-5.079,5.956-7.971,8.342
		c2.833,1.052,5.758,2.259,8.712,3.594l0.769,0.348l-0.524,0.662c-2.438,3.079-5.135,5.805-8.03,8.115
		C8.314,86.901,11.074,87.89,13.93,89l0.875,0.338l-0.615,0.708c-2.33,2.681-4.892,5.067-7.629,7.11
		c3.085,0.869,6.265,1.871,9.472,2.984l0.822,0.285l-0.497,0.713c-2.279,3.275-4.872,6.17-7.717,8.621
		c2.458,0.611,5.023,1.312,7.644,2.094l0.815,0.244l-0.438,0.729c-1.511,2.504-3.219,4.865-5.094,7.039
		c1.582-0.447,10.833-2.666,15.06,1.08c4.227,3.746,4.734,7.244,4.734,7.244c56.02-18.414,113.177-28.791,170.745-31.475
		c-0.055-2.816,0.773-5.154,2.462-6.961c2.927-3.129,7.533-3.703,9.193-3.809C212.41,65.7,211.046,45.445,209.685,25.194z"/>
	<path fill="#FFFFFF" d="M214.957,86.463c-1.378-20.643-2.603-41.221-3.992-61.87l-0.036-0.519l-0.512-0.087
		c-11.386-1.923-12.426-10.934-12.521-11.907l-0.025-0.76l-0.686-0.128C157.465,3.766,117.146,0,77.35,0
		C58.825,0,40.146,0.821,21.827,2.441l-0.642,0.057l0.043,0.644c0.915,13.715-8.237,15.902-10.69,16.605l-2.304,0.579
		c-2.097,0.499-4.236,0.991-6.387,1.471L0,22.209l1.703,0.824c2.535,1.228,5.136,2.7,7.742,4.383
		c-2.757,2.79-5.546,5.37-8.297,7.675l-1.067,0.894l1.369,0.259c3.292,0.621,6.341,1.287,9.285,2.032
		c-2.544,3.51-5.377,6.604-8.435,9.208l-0.833,0.711l1.018,0.403c2.854,1.134,5.792,2.424,8.744,3.839
		c-2.695,3.243-5.709,6.101-8.97,8.506l-1.074,0.792l1.282,0.371c2.738,0.792,5.655,1.735,8.683,2.805
		c-2.443,3.099-5.164,5.829-8.097,8.124l-0.939,0.736l1.123,0.402c2.894,1.043,5.897,2.256,8.938,3.608
		c-2.508,3.067-5.281,5.753-8.254,7.993l-1.023,0.772l1.223,0.384c2.659,0.834,5.497,1.826,8.45,2.955
		c-2.41,2.67-5.059,5.021-7.883,6.998l-1.153,0.807l1.358,0.369c3.202,0.871,6.521,1.891,9.879,3.039
		c-2.355,3.258-5.033,6.107-7.968,8.479l-1.043,0.842l1.304,0.312c2.563,0.611,5.258,1.332,8.022,2.141
		c-1.755,2.805-3.768,5.414-5.988,7.764l-1.576,1.666l2.219-0.576c2.333-0.605,12.257-3.406,16.055,0.24
		c3.798,3.645,4.603,8.047,4.603,8.047C86.765,111.408,144.885,100.641,202.821,98l0.673-0.029l-0.045-0.672
		c-0.183-2.738,0.518-4.973,2.082-6.645c3.143-3.359,8.572-3.49,8.721-3.49h0.001L215,87.111L214.957,86.463z M202.105,96.715
		C144.537,99.398,87.38,109.775,31.36,128.189c0,0-0.507-3.498-4.734-7.244c-4.227-3.746-13.478-1.527-15.06-1.08
		c1.875-2.174,3.583-4.535,5.094-7.039l0.438-0.729l-0.815-0.244c-2.621-0.781-5.186-1.482-7.644-2.094
		c2.845-2.451,5.438-5.346,7.717-8.621l0.497-0.713l-0.822-0.285c-3.207-1.113-6.387-2.115-9.472-2.984
		c2.737-2.043,5.299-4.43,7.629-7.11l0.615-0.708L13.93,89c-2.856-1.11-5.615-2.099-8.222-2.945c2.895-2.311,5.592-5.036,8.03-8.115
		l0.524-0.662l-0.769-0.348c-2.954-1.335-5.879-2.542-8.712-3.594c2.892-2.386,5.57-5.188,7.971-8.342l0.544-0.716l-0.846-0.303
		c-2.9-1.04-5.707-1.968-8.363-2.765c3.162-2.463,6.082-5.348,8.693-8.589l0.519-0.644l-0.744-0.362
		c-2.89-1.405-5.773-2.695-8.584-3.838c2.907-2.591,5.605-5.617,8.037-9.013c0.117-0.165,0.695-1.159,0.695-1.159
		s-6.509-1.777-9.658-2.396c2.63-2.263,5.285-4.762,7.905-7.445l0.558-0.571l-0.666-0.44c-2.315-1.526-4.633-2.892-6.91-4.075
		c2.048-0.464,4.077-0.939,6.06-1.417c0,0,1.203-0.303,1.532-0.385c0.328-0.082,1.346-0.417,1.346-0.417
		c3.703-1.343,10.224-5.339,9.708-16.761c18.076-1.58,36.5-2.38,54.771-2.38c39.555,0,79.629,3.729,119.114,11.081
		c0.162,1.176,0.751,3.579,2.308,5.949c2.372,3.612,6.042,5.914,10.913,6.847c1.361,20.25,2.726,40.506,4.076,60.751
		c-1.66,0.105-6.267,0.68-9.193,3.809C202.879,91.561,202.051,93.898,202.105,96.715z"/>
</g>
<g>
	<path fill="none" d="M100.572,75.617c-0.065-0.074-0.162-0.168-0.251-0.197c0,0-0.04-0.007-0.118,0.018
		c-0.258,0.027-0.38,0.038-0.642,0.504c-0.055,0.133-0.36,0.789-0.26,2.598c0.007,0.173,0.009,0.374,0.039,0.561
		c0.233,2.814,0.813,3.489,0.813,3.489c0.042,0.046,0.066,0.047,0.066,0.047c0.027,0.021,0.109,0.017,0.279-0.013
		c0.209-0.004,0.312-0.054,0.361-0.061c0.158-0.242,0.464-0.852,0.638-2.139c0,0,0.133-1.06,0.268-2.104
		c-0.375-0.895-0.869-2.046-0.869-2.046C100.701,75.81,100.572,75.617,100.572,75.617z"/>
	<path fill="none" d="M107.316,77.417c0.666,0.101,2.536,0.384,4.412,0.667c-0.064-0.719-0.129-1.439-0.191-2.158
		C109.814,76.524,108.088,77.131,107.316,77.417z"/>
	<path fill="none" d="M136.644,72.119c0.654,0.835,2.123,2.625,3.837,4.692c-0.249-2.722-0.498-5.45-0.746-8.178
		C138.362,70.152,137.207,71.449,136.644,72.119z"/>
	<path fill="#FFFFFF" d="M194.099,68.214c-0.34-3.402-0.681-6.813-1.021-10.204c-1.295-0.003-2.592,0.009-3.89,0.024
		c-7.846,0.088-15.687,0.285-23.526,0.579c-0.81,0.029-1.619,0.058-2.432,0.086c-0.303,0.012-0.604,0.027-0.907,0.04
		c-0.068,0.003-0.138,0.005-0.206,0.008c0,0,0,0,0,0.001c-7.727,0.317-15.463,0.736-23.168,1.26
		c0.001,0.006,0.001,0.012,0.001,0.018c-3.728,0.241-7.455,0.525-11.172,0.821c0,0-1.732,2.238-1.935,2.522
		c-0.085-0.916-0.206-2.343-0.206-2.343c-5.105,0.433-10.201,0.899-15.299,1.405c0.104,1.165,0.207,2.325,0.311,3.488
		c-0.559-0.443-1.152-0.838-1.781-1.181c-2.615-1.415-5.967-1.957-9.945-1.499c-5.098,0.58-9.019,2.559-11.661,5.908
		c-0.368,0.465-0.695,0.957-1.001,1.465c-0.154-1.787-0.308-3.57-0.461-5.359c-1.282,0.174-2.569,0.344-3.853,0.506
		c-2.457,0.329-4.911,0.678-7.361,1.032c0-0.003,0-0.005-0.001-0.009c-1.294,0.178-2.585,0.371-3.87,0.561
		c-8.927,1.314-17.843,2.765-26.741,4.355c0.382,4.672,0.769,9.318,1.145,13.975c0,0,5.767-1.158,7.693-1.533
		c0.396,4.881,1.632,19.865,1.632,19.865c5.039-1.174,10.091-2.305,15.151-3.375c0,0-1.227-14.619-1.628-19.312
		c0.823-0.145,2.299-0.402,3.744-0.654c0.538,6.4,1.075,12.793,1.609,19.176c5.058-1.064,10.123-2.092,15.194-3.062
		c-0.159-1.848-0.319-3.705-0.479-5.555c1.63,1.75,3.508,2.908,5.604,3.457c2.339,0.604,5.174,0.602,8.448,0.004
		c2.794-0.473,5.161-1.326,7.056-2.475c1.373-0.867,2.559-1.901,3.558-3.102c0.099,1.109,0.196,2.225,0.294,3.334
		c5.073-0.834,10.165-1.602,15.26-2.351c0,0-0.373-4.151-0.45-5.019c0.903,1.312,3.228,4.615,3.228,4.615
		c3.5-0.504,6.998-0.971,10.498-1.426c0,0.001,0,0.002,0,0.002c9.5-1.245,18.997-2.324,28.499-3.242
		c-0.337-3.462-0.672-6.939-0.999-10.395c0,0-0.719,0.035-1.284,0.094c-0.035-0.471-0.355-3.807-0.494-5.256
		c1.443-0.094,2.908-0.183,3.707-0.219c0.369,3.811,1.5,15.545,1.5,15.539c5.103-0.477,10.205-0.928,15.318-1.322
		c0,0.008-1.118-11.328-1.479-14.975C188.278,68.396,194.093,68.195,194.099,68.214z M101.498,80.424
		c-0.174,1.287-0.479,1.896-0.638,2.139c-0.05,0.007-0.152,0.057-0.361,0.061c-0.17,0.029-0.252,0.033-0.279,0.013
		c0,0-0.024-0.001-0.066-0.047c0,0-0.581-0.675-0.813-3.489c-0.03-0.187-0.032-0.388-0.039-0.561c-0.1-1.809,0.206-2.465,0.26-2.598
		c0.262-0.466,0.384-0.477,0.642-0.504c0.078-0.024,0.118-0.018,0.118-0.018c0.089,0.029,0.186,0.123,0.251,0.197
		c0,0,0.129,0.192,0.325,0.656c0,0,0.493,1.151,0.869,2.046C101.63,79.364,101.498,80.424,101.498,80.424z M107.316,77.417
		c0.771-0.286,2.498-0.893,4.221-1.491c0.062,0.719,0.127,1.439,0.191,2.158C109.853,77.801,107.982,77.518,107.316,77.417z
		 M136.644,72.119c0.563-0.67,1.719-1.967,3.091-3.485c0.248,2.728,0.497,5.456,0.746,8.178
		C138.767,74.744,137.298,72.954,136.644,72.119z"/>
</g>
<g>
	<path fill="none" d="M142.658,26.308c-0.387-2.589-0.774-5.187-1.158-7.769c-1.74-0.09-3.48-0.183-5.222-0.258
		C138.852,20.552,140.988,23.24,142.658,26.308z"/>
	<path fill="none" d="M123.703,31.948c-0.406-0.774-0.799-1.554-1.211-2.314c-0.717-1.382-1.186-1.908-1.369-2.093
		c-0.73-0.702-1.541-1.257-2.484-1.666c-0.991-0.406-2.047-0.644-3.229-0.684c-2.711-0.124-4.487,0.588-5.611,2.274
		c-0.607,0.888-1.178,2.822-0.502,6.946c0.88,5.484,2.355,7.487,3.16,8.184c1.326,1.182,3.062,1.724,5.312,1.663
		c2.167-0.028,3.681-0.475,4.5-1.333c0.994-1.033,1.635-2.637,1.92-4.775c0.127-0.949,0.253-1.9,0.382-2.848
		c6.774,1.732,13.514,3.456,20.202,5.174c-0.545-3.645-1.088-7.277-1.629-10.907C136.631,30.202,130.154,30.993,123.703,31.948z"/>
	<path fill="none" d="M63.473,39.527c1.125-0.085,1.252-0.085,2.396-0.189c-0.79-1.414-1.076-1.923-2.155-3.855
		C63.591,37.481,63.554,38.064,63.473,39.527z"/>
	<path fill="none" d="M86.958,36.562c-0.13-0.52-0.248-1.076-0.359-1.623c-1.353-6.836-0.783-12.532,1.739-16.842
		c-4.906,0.171-9.81,0.398-14.712,0.687c5.829,9.304,11.481,18.361,16.962,27.179C89.012,43.2,87.79,40.056,86.958,36.562z"/>
	<path fill="#FFFFFF" d="M35.498,22.219c3.502-0.426,7.009-0.81,10.516-1.175c-1.5,15.199-2.49,31.237-2.935,48.115
		c6.401-1.474,12.881-2.826,19.442-4.06c0-0.002,0.132-6.003,0.199-8.397c2.613-0.42,9.252-1.326,11.84-1.639
		c1.158,2.135,4.007,7.375,4.007,7.375c6.828-1.015,13.699-1.891,20.616-2.62c-2.41-3.893-4.854-7.835-7.333-11.827
		c0.713,1.041,1.484,2.018,2.313,2.924c3.653,4,7.644,6.663,11.912,7.973c4.072,1.272,9.058,1.636,14.875,1.231
		c4.869-0.347,8.913-1.21,12.036-2.554c3.233-1.408,5.908-3.354,7.943-5.775c2.027-2.382,3.422-5.303,4.125-8.663
		c0.024-0.106,0.046-0.212,0.069-0.318c0.657,4.389,1.313,8.773,1.977,13.184c14.933-1.096,29.863-1.633,44.733-1.616
		c-0.24-3.64-0.473-7.301-0.7-10.922c0.007-0.108-20.874-0.795-25.359-0.694c-0.107-0.975-0.137-1.218-0.24-2.215
		c4.491-0.031,23.03,0.703,23.024,0.783c-0.229-3.444-0.439-6.876-0.668-10.287c0.009-0.076-19.091-1.6-23.604-1.768
		c-0.042-0.453-0.043-0.483-0.095-0.943c4.725,0.186,25.415,1.925,25.415,2.016c-0.213-3.495-0.416-6.986-0.623-10.464
		c-15.835-2.187-31.884-3.864-48.026-5.045c0.119,0.805,0.231,1.605,0.35,2.408c0.022,0.151,0.045,0.304,0.068,0.455
		c-2.176-0.212-4.352-0.42-6.526-0.609c-1.031-0.8-2.12-1.542-3.274-2.217c-4.793-2.818-11.123-4.693-18.76-5.358
		c-9.845-0.873-17.252,0.861-21.905,5.286c-0.021,0.021-0.041,0.044-0.062,0.065c-6.556-0.097-13.11-0.095-19.664,0.019
		c-0.902-1.438-1.803-2.874-2.713-4.324c-7.126-0.169-14.227-0.237-21.287-0.191c-0.084,0.677-0.175,1.351-0.259,2.033
		c-0.129,1.127-0.246,2.272-0.369,3.409c-5.755,0.333-11.508,0.743-17.259,1.239l8.709,98.971l5.835-1.676
		c30.661-8.48,92.194-18.027,121.225-20.303c-30.324,1.066-91.265,9.535-121.454,16.543L35.498,22.219z M63.473,39.527
		c0.081-1.462,0.118-2.046,0.241-4.045c1.079,1.933,1.365,2.441,2.155,3.855C64.726,39.442,64.598,39.442,63.473,39.527z
		 M124.571,35.302c-0.129,0.948-0.255,1.899-0.382,2.848c-0.285,2.138-0.926,3.742-1.92,4.775c-0.819,0.857-2.333,1.305-4.5,1.333
		c-2.25,0.061-3.986-0.481-5.312-1.663c-0.805-0.697-2.28-2.7-3.16-8.184c-0.676-4.124-0.105-6.058,0.502-6.946
		c1.124-1.686,2.9-2.397,5.611-2.274c1.182,0.04,2.237,0.278,3.229,0.684c0.943,0.408,1.754,0.964,2.484,1.666
		c0.184,0.186,0.652,0.711,1.369,2.093c0.412,0.76,0.805,1.54,1.211,2.314c6.451-0.956,12.928-1.746,19.441-2.379
		c0.541,3.63,1.084,7.263,1.629,10.907C138.085,38.758,131.346,37.034,124.571,35.302z M141.5,18.539
		c0.384,2.582,0.771,5.18,1.158,7.769c-1.67-3.067-3.807-5.756-6.38-8.026C138.02,18.356,139.76,18.449,141.5,18.539z
		 M88.338,18.097c-2.522,4.311-3.092,10.006-1.739,16.842c0.111,0.547,0.229,1.103,0.359,1.623c0.832,3.494,2.054,6.638,3.63,9.401
		c-5.481-8.818-11.133-17.875-16.962-27.179C78.528,18.495,83.433,18.268,88.338,18.097z"/>
</g>
<g>
	<path d="M127.295,38.456c4.9,1.205,9.762,2.426,14.604,3.632c-0.622,3.036-1.812,5.583-3.58,7.673
		c-1.764,2.108-4.031,3.753-6.846,4.946c-2.795,1.185-6.445,1.92-10.967,2.173c-5.475,0.317-10.055-0.049-13.768-1.228
		c-3.73-1.176-7.198-3.518-10.431-7.082c-3.273-3.552-5.492-8.308-6.616-14.165c-1.5-7.803-0.287-13.792,3.785-17.701
		c4.11-3.898,10.685-5.443,19.634-4.71c6.979,0.563,12.601,2.165,16.827,4.614c4.195,2.454,7.471,5.875,9.818,10.239
		c-4.809,0.457-9.607,1.004-14.382,1.626c-0.678-1.312-1.335-2.293-1.989-2.899c-1.064-1.064-2.312-1.894-3.746-2.514
		c-1.432-0.628-2.983-0.995-4.664-1.084c-3.809-0.193-6.527,0.894-8.134,3.354c-1.217,1.808-1.478,4.74-0.818,8.756
		c0.818,4.984,2.265,8.381,4.308,10.171c2.026,1.774,4.607,2.602,7.751,2.514c3.042-0.078,5.241-0.83,6.608-2.244
		C126.067,43.108,126.933,41.079,127.295,38.456z"/>
	<path d="M144.332,17.126c14.016,0.976,27.95,2.354,41.742,4.104c0.132,2.19,0.269,4.378,0.417,6.566
		c-8.485-0.875-17.024-1.594-25.604-2.163c0.207,1.805,0.414,3.618,0.621,5.426c7.882,0.373,15.731,0.866,23.544,1.501
		c0.153,2.117,0.297,4.208,0.449,6.315c-7.697-0.438-15.436-0.718-23.194-0.904c0.269,2.238,0.526,4.484,0.784,6.731
		c8.46-0.035,16.883,0.092,25.283,0.391c0.161,2.329,0.325,4.658,0.479,6.991c-13.063-0.066-26.206,0.262-39.334,1.022
		C147.762,41.045,146.028,29.05,144.332,17.126z"/>
	<path d="M75.783,52c-5.356,0.583-10.666,1.268-15.938,2.002c-0.074,2.798-0.137,5.617-0.18,8.451
		c-4.649,0.818-9.267,1.71-13.848,2.656c0.748-18.128,2.114-35.252,4.099-51.384c5.661-0.058,11.341-0.063,17.052,0.03
		c9.619,15.254,18.766,29.89,27.469,43.89c-4.909,0.509-9.803,1.081-14.666,1.726C78.452,56.927,77.123,54.471,75.783,52
		 M70.443,42.321c-3.015-5.432-6.088-10.924-9.215-16.48c-0.394,5.685-0.73,11.49-1.011,17.399
		C63.621,42.896,67.019,42.592,70.443,42.321z"/>
</g>
<g>
	<path d="M48.094,74.675c7.638-1.372,15.285-2.653,22.954-3.829c0.184,2.098,0.349,4.193,0.52,6.299
		c-2.571,0.42-5.143,0.869-7.713,1.318c0.539,6.498,1.084,12.977,1.62,19.455c-2.508,0.523-5.011,1.076-7.518,1.621
		c-0.547-6.562-1.093-13.125-1.632-19.74c-2.571,0.469-5.136,0.963-7.701,1.453C48.45,79.064,48.267,76.874,48.094,74.675z"/>
	<path d="M74.709,70.298c2.513-0.38,5.033-0.749,7.553-1.116c0.715,8.336,1.425,16.653,2.137,24.924
		c-2.517,0.48-5.039,0.979-7.553,1.477C76.138,87.158,75.428,78.734,74.709,70.298z"/>
	<path d="M105.329,80.513c2.279,0.344,4.552,0.673,6.839,1.01c-0.295,1.849-0.863,3.437-1.717,4.776
		c-0.857,1.363-1.965,2.451-3.329,3.285c-1.37,0.848-3.154,1.459-5.354,1.824c-2.667,0.465-4.871,0.469-6.622-0.016
		c-1.767-0.469-3.333-1.584-4.736-3.297c-1.389-1.747-2.214-4.177-2.475-7.238c-0.356-4.085,0.452-7.395,2.425-9.887
		c1.959-2.477,4.927-3.943,8.885-4.424c3.085-0.374,5.569-0.021,7.45,0.985c1.878,1.015,3.355,2.705,4.432,5.098
		c-2.198,0.751-4.398,1.522-6.604,2.293c-0.295-0.688-0.583-1.2-0.873-1.507c-0.479-0.502-1.025-0.869-1.672-1.096
		c-0.631-0.23-1.339-0.293-2.093-0.194c-1.72,0.214-2.977,1.096-3.769,2.579c-0.607,1.124-0.822,2.754-0.62,4.943
		c0.227,2.699,0.8,4.48,1.718,5.344c0.917,0.866,2.119,1.155,3.613,0.932c1.445-0.217,2.508-0.782,3.18-1.701
		C104.689,83.302,105.123,82.068,105.329,80.513z"/>
	<path d="M114.473,65.279c2.526-0.272,5.062-0.53,7.6-0.767c0.256,2.91,0.521,5.808,0.765,8.714
		c2.399-3.215,4.782-6.342,7.175-9.417c3.367-0.292,6.742-0.572,10.114-0.804c-2.718,2.978-5.438,6.029-8.157,9.156
		c3.535,4.389,7.084,8.676,10.623,12.899c-3.128,0.377-6.246,0.776-9.364,1.192c-1.995-2.84-3.987-5.697-5.983-8.608
		c-1.203,1.419-2.417,2.845-3.619,4.301c0.178,1.856,0.34,3.708,0.502,5.57c-2.521,0.354-5.047,0.724-7.572,1.111
		C115.861,80.867,115.171,73.085,114.473,65.279z"/>
	<path d="M143.076,62.79c6.811-0.478,13.642-0.875,20.46-1.2c0.156,1.501,0.295,2.996,0.434,4.494
		c-4.289,0.262-8.572,0.527-12.86,0.834c0.118,1.152,0.215,2.287,0.325,3.43c3.973-0.322,7.964-0.609,11.934-0.886
		c0.128,1.432,0.28,2.854,0.405,4.279c-3.975,0.32-7.949,0.635-11.927,1.004c0.135,1.405,0.272,2.817,0.396,4.255
		c4.408-0.442,8.793-0.855,13.208-1.217c0.148,1.582,0.303,3.155,0.452,4.75c-6.929,0.657-13.875,1.395-20.797,2.207
		C144.426,77.467,143.754,70.123,143.076,62.79z"/>
	<path d="M166.264,61.46c7.736-0.333,15.48-0.577,23.216-0.701c0.176,1.609,0.323,3.256,0.49,4.864
		c-2.597,0.067-5.205,0.164-7.793,0.269c0.487,5.051,0.983,10.103,1.469,15.123c-2.533,0.194-5.069,0.38-7.6,0.611
		c-0.492-5.116-1.008-10.257-1.498-15.401c-2.599,0.124-5.192,0.247-7.793,0.397C166.586,64.891,166.429,63.185,166.264,61.46z"/>
</g>
</svg>
