<?xml version="1.0" encoding="UTF-8" standalone="no"?>
<svg width="22px" height="21px" viewBox="0 0 22 21" version="1.1" xmlns="http://www.w3.org/2000/svg" xmlns:xlink="http://www.w3.org/1999/xlink">
    <g id="Page-1" stroke="none" stroke-width="1" fill="none" fill-rule="evenodd">
        <g id="GitHub-Mark" transform="translate(-136.000000, -55.000000)" fill="#161614">
            <path d="M146.819033,55.455 C141.021618,55.455 136.32,60.155973 136.32,65.9553223 C136.32,70.594415 139.328288,74.5296186 143.500699,75.918059 C144.026038,76.0147471 144.21748,75.6905198 144.21748,75.4120582 C144.21748,75.1632476 144.208456,74.502546 144.203299,73.6265522 C141.282675,74.2608258 140.66645,72.2187742 140.66645,72.2187742 C140.188811,71.0056615 139.500392,70.6827234 139.500392,70.6827234 C138.547048,70.0316905 139.572586,70.0445822 139.572586,70.0445822 C140.626486,70.1187098 141.180831,71.1268438 141.180831,71.1268438 C142.117416,72.7312209 143.638641,72.2677628 144.236818,71.99897 C144.332216,71.3208645 144.603588,70.858051 144.903321,70.5957041 C142.571849,70.3307789 140.120485,69.4296462 140.120485,65.4061342 C140.120485,64.2600585 140.529798,63.3221844 141.201457,62.5886444 C141.093167,62.3230745 140.732843,61.2549939 141.304591,59.8098298 C141.304591,59.8098298 142.185742,59.5275007 144.191696,60.8862901 C145.029015,60.6529496 145.927569,60.5369239 146.820322,60.5324118 C147.712431,60.5369239 148.61034,60.6529496 149.448948,60.8862901 C151.453614,59.5275007 152.333475,59.8098298 152.333475,59.8098298 C152.906513,61.2549939 152.546189,62.3230745 152.438543,62.5886444 C153.111491,63.3221844 153.517581,64.2600585 153.517581,65.4061342 C153.517581,69.4399596 151.062349,70.3275559 148.723788,70.5873245 C149.100227,70.9115518 149.436056,71.5522712 149.436056,72.5320435 C149.436056,73.9353094 149.423165,75.0678488 149.423165,75.4120582 C149.423165,75.6930982 149.612673,76.0199038 150.145102,75.9174144 C154.314291,74.5257511 157.32,70.5931258 157.32,65.9553223 C157.32,60.155973 152.618382,55.455 146.819033,55.455" id="Fill-3"></path>
        </g>
    </g>
</svg>
