<?xml version="1.0" encoding="UTF-8" standalone="no"?>
<svg width="75px" height="68px" viewBox="0 0 75 68" version="1.1" xmlns="http://www.w3.org/2000/svg" xmlns:xlink="http://www.w3.org/1999/xlink">
    <!-- Generator: Sketch 40.3 (33839) - http://www.bohemiancoding.com/sketch -->
    <title>Page 1</title>
    <desc>Created with Sketch.</desc>
    <defs>
        <polygon id="path-1" points="74.9997321 67.4321 0 67.4321 0 0.0001 74.9997321 0.0001 74.9997321 67.4321"></polygon>
    </defs>
    <g id="Page-1" stroke="none" stroke-width="1" fill="none" fill-rule="evenodd">
        <g>
            <mask id="mask-2" fill="white">
                <use xlink:href="#path-1"></use>
            </mask>
            <g id="Clip-2"></g>
            <path d="M34.5459,63.6577 C32.9319,61.8477 28.9009,58.3207 25.5889,55.8207 C15.7749,48.4087 14.4389,47.3367 10.4549,43.6687 C3.1089,36.9037 -0.0111,30.1087 -0.0001,20.8937 C0.0049,16.3957 0.3119,14.6627 1.5709,12.0117 C3.7089,7.5127 6.8569,4.1707 10.8819,2.1257 C13.7329,0.6787 15.1379,0.0347 19.8989,0.0087 C24.8789,-0.0193 25.9259,0.5607 28.8559,2.1717 C32.4209,4.1297 36.0909,8.3157 36.8489,11.2887 L37.3169,13.1257 L38.4729,10.5957 C45.0029,-3.6963 65.8479,-3.4833 73.1029,10.9507 C75.4039,15.5317 75.6559,25.3077 73.6149,30.8157 C70.9539,38.0007 65.9539,43.4777 54.3959,51.8717 C46.8169,57.3767 38.2369,65.7057 37.6409,66.8757 C36.9479,68.2337 37.6079,67.0887 34.5459,63.6577" id="Fill-1" fill="#FF0000" mask="url(#mask-2)"></path>
        </g>
    </g>
</svg>