<?xml version="1.0" encoding="UTF-8"?>
<svg width="291px" height="99px" viewBox="0 0 291 99" version="1.1" xmlns="http://www.w3.org/2000/svg" xmlns:xlink="http://www.w3.org/1999/xlink">
    <!-- Generator: Sketch 44 (41411) - http://www.bohemiancoding.com/sketch -->
    <title>Logo</title>
    <desc>Created with Sketch.</desc>
    <defs>
        <rect id="path-1" x="0" y="0" width="289" height="93"></rect>
        <filter x="-1.7%" y="-3.2%" width="103.5%" height="112.9%" filterUnits="objectBoundingBox" id="filter-2">
            <feOffset dx="0" dy="4" in="SourceAlpha" result="shadowOffsetOuter1"></feOffset>
            <feGaussianBlur stdDeviation="1" in="shadowOffsetOuter1" result="shadowBlurOuter1"></feGaussianBlur>
            <feColorMatrix values="0 0 0 0 0   0 0 0 0 0   0 0 0 0 0  0 0 0 0.5 0" type="matrix" in="shadowBlurOuter1"></feColorMatrix>
        </filter>
    </defs>
    <g id="Page-1" stroke="none" stroke-width="1" fill="none" fill-rule="evenodd">
        <g id="Home" transform="translate(0.000000, -21.000000)">
            <g id="Logo" transform="translate(0.000000, 21.000000)">
                <g id="Rectangle">
                    <use fill="black" fill-opacity="1" filter="url(#filter-2)" xlink:href="#path-1"></use>
                    <use fill="#6336A0" fill-rule="evenodd" xlink:href="#path-1"></use>
                </g>
                <path d="M26.972,35 L26.972,32.552 L28.34,32.552 L28.34,23.6 L26.972,23.6 L26.972,21.128 L33.812,21.128 L33.812,23.6 L32.42,23.6 L32.42,27.608 L36.5,23.6 L35.3,23.6 L35.3,21.128 L41.636,21.128 L41.636,23.6 L40.532,23.6 L36.236,27.848 L40.82,32.552 L41.924,32.552 L41.924,35 L35.252,35 L35.252,32.552 L36.308,32.552 L32.42,28.424 L32.42,32.552 L33.812,32.552 L33.812,35 L26.972,35 Z M55.412,32.888 L55.412,35 L49.604,35 L49.604,32.888 L50.612,32.888 L50.612,29.072 C50.612,28.5919976 50.5000011,28.2200013 50.276,27.956 C50.0519989,27.6919987 49.740002,27.56 49.34,27.56 C48.8439975,27.56 48.3320026,27.7119985 47.804,28.016 L47.804,32.888 L48.836,32.888 L48.836,35 L42.98,35 L42.98,32.888 L44.228,32.888 L44.228,27.488 L42.98,27.488 L42.98,25.4 L47.54,25.4 L47.588,26.264 C48.6760054,25.5279963 49.7799944,25.16 50.9,25.16 C51.9240051,25.16 52.7279971,25.4679969 53.312,26.084 C53.8960029,26.7000031 54.188,27.503995 54.188,28.496 L54.188,32.888 L55.412,32.888 Z M58.592,34.628 C57.783996,34.2039979 57.1560022,33.6080038 56.708,32.84 C56.2599978,32.0719962 56.036,31.184005 56.036,30.176 C56.036,29.183995 56.2599978,28.3040038 56.708,27.536 C57.1560022,26.7679962 57.783996,26.1760021 58.592,25.76 C59.400004,25.3439979 60.3319947,25.136 61.388,25.136 C62.4440053,25.136 63.375996,25.3439979 64.184,25.76 C64.992004,26.1760021 65.6199978,26.7679962 66.068,27.536 C66.5160022,28.3040038 66.74,29.183995 66.74,30.176 C66.74,31.184005 66.5160022,32.0719962 66.068,32.84 C65.6199978,33.6080038 64.992004,34.2039979 64.184,34.628 C63.375996,35.0520021 62.4440053,35.264 61.388,35.264 C60.3319947,35.264 59.400004,35.0520021 58.592,34.628 Z M62.876,31.952 C63.2440018,31.5199978 63.428,30.9280038 63.428,30.176 C63.428,29.4399963 63.2440018,28.8600021 62.876,28.436 C62.5079982,28.0119979 62.0120031,27.8 61.388,27.8 C60.7479968,27.8 60.2480018,28.0119979 59.888,28.436 C59.5279982,28.8600021 59.348,29.4399963 59.348,30.176 C59.348,30.9280038 59.5279982,31.5199978 59.888,31.952 C60.2480018,32.3840022 60.7479968,32.5920001 61.388,32.576 C62.0120031,32.5920001 62.5079982,32.3840022 62.876,31.952 Z M68.756,32.144 L68.756,27.488 L67.556,27.488 L67.556,25.4 L68.732,25.4 L68.732,22.28 L72.308,21.68 L72.308,25.4 L74.468,25.4 L74.468,27.488 L72.308,27.488 L72.308,31.544 C72.308,32.0080023 72.3919992,32.335999 72.56,32.528 C72.7280008,32.720001 73.0199979,32.816 73.436,32.816 L74.54,32.816 L74.54,35 L71.852,35 C69.7879897,35 68.756,34.0480095 68.756,32.144 Z M76.628,32.144 L76.628,27.488 L75.428,27.488 L75.428,25.4 L76.604,25.4 L76.604,22.28 L80.18,21.68 L80.18,25.4 L82.34,25.4 L82.34,27.488 L80.18,27.488 L80.18,31.544 C80.18,32.0080023 80.2639992,32.335999 80.432,32.528 C80.6000008,32.720001 80.8919979,32.816 81.308,32.816 L82.412,32.816 L82.412,35 L79.724,35 C77.6599897,35 76.628,34.0480095 76.628,32.144 Z M83.444,35 L83.444,32.552 L84.86,32.552 L88.244,23.6 L86.9,23.6 L86.9,21.128 L96.452,21.128 L96.452,23.6 L95.084,23.6 L98.516,32.552 L99.908,32.552 L99.908,35 L92.852,35 L92.852,32.552 L94.388,32.552 L93.596,30.104 L89.3,30.104 L88.508,32.552 L89.852,32.552 L89.852,35 L83.444,35 Z M90.044,27.8 L92.9,27.8 L91.58,23.6 L91.436,23.6 L90.044,27.8 Z M105.068,35 L101.444,27.488 L100.484,27.488 L100.484,25.4 L106.292,25.4 L106.292,27.488 L105.284,27.488 L107.132,31.736 L108.956,27.488 L107.948,27.488 L107.948,25.4 L112.652,25.4 L112.652,27.488 L111.74,27.488 L108.14,35 L105.068,35 Z M123.164,30.752 L116.54,30.752 C116.684001,31.360003 116.983998,31.8199984 117.44,32.132 C117.896002,32.4440016 118.459997,32.6 119.132,32.6 C120.236006,32.6 121.227996,32.2560034 122.108,31.568 L123.092,33.68 C122.531997,34.1760025 121.872004,34.5639986 121.112,34.844 C120.351996,35.1240014 119.532004,35.264 118.652,35.264 C116.971992,35.264 115.632005,34.8160045 114.632,33.92 C113.631995,33.0239955 113.132,31.7840079 113.132,30.2 C113.132,29.207995 113.355998,28.3280038 113.804,27.56 C114.252002,26.7919962 114.875996,26.1960021 115.676,25.772 C116.476004,25.3479979 117.379995,25.136 118.388,25.136 C119.876007,25.136 121.043996,25.5919954 121.892,26.504 C122.740004,27.4160046 123.164,28.6159926 123.164,30.104 L123.164,30.752 Z M119.876,29.24 C119.876,28.6799972 119.736001,28.2400016 119.456,27.92 C119.175999,27.5999984 118.780003,27.44 118.268,27.44 C117.771998,27.44 117.372002,27.5959984 117.068,27.908 C116.763998,28.2200016 116.572,28.6639971 116.492,29.24 L119.876,29.24 Z M133.388,25.616 L132.644,28.496 C132.003997,28.1599983 131.348003,27.992 130.676,27.992 C130.211998,27.992 129.804002,28.1239987 129.452,28.388 C129.099998,28.6520013 128.924,29.0479974 128.924,29.576 L128.924,32.888 L130.292,32.888 L130.292,35 L124.124,35 L124.124,32.888 L125.372,32.888 L125.372,27.488 L124.124,27.488 L124.124,25.4 L128.924,25.4 L128.924,27.272 C129.564003,25.879993 130.443994,25.184 131.564,25.184 C132.172003,25.184 132.779997,25.3279986 133.388,25.616 Z M144.788,32.888 L144.788,35 L140.708,35 L140.444,34.16 C139.563996,34.8800036 138.556006,35.24 137.42,35.24 C136.443995,35.24 135.668003,34.9840026 135.092,34.472 C134.515997,33.9599974 134.228,33.2800042 134.228,32.432 C134.228,31.4079949 134.587996,30.6560024 135.308,30.176 C136.028004,29.6959976 136.939994,29.456 138.044,29.456 C138.796004,29.456 139.499997,29.551999 140.156,29.744 L140.156,29.288 C140.156,28.087994 139.548006,27.488 138.332,27.488 C137.467996,27.488 136.412006,27.7599973 135.164,28.304 L134.372,26.264 C135.940008,25.5279963 137.547992,25.16 139.196,25.16 C140.604007,25.16 141.695996,25.5039966 142.472,26.192 C143.248004,26.8800034 143.636,27.8399938 143.636,29.072 L143.636,32.888 L144.788,32.888 Z M137.72,33.08 C137.936001,33.288001 138.243998,33.392 138.644,33.392 C139.204003,33.392 139.707998,33.2000019 140.156,32.816 L140.156,31.208 C139.723998,31.0639993 139.292002,30.992 138.86,30.992 C138.443998,30.992 138.096001,31.091999 137.816,31.292 C137.535999,31.492001 137.396,31.7999979 137.396,32.216 C137.396,32.5840018 137.503999,32.871999 137.72,33.08 Z M157.604,25.4 L157.604,27.488 L156.428,27.488 L156.428,34.496 C156.428,36.1920085 155.960005,37.4799956 155.024,38.36 C154.087995,39.2400044 152.796008,39.68 151.148,39.68 C149.851994,39.68 148.420008,39.4240026 146.852,38.912 L147.428,36.728 C148.548006,37.0960018 149.571995,37.28 150.5,37.28 C151.284004,37.28 151.875998,37.084002 152.276,36.692 C152.676002,36.299998 152.876,35.7280038 152.876,34.976 L152.876,34.328 C152.491998,34.6160014 152.084002,34.8319993 151.652,34.976 C151.219998,35.1200007 150.724003,35.192 150.164,35.192 C148.755993,35.192 147.640004,34.7440045 146.816,33.848 C145.991996,32.9519955 145.58,31.7360077 145.58,30.2 C145.58,28.6639923 145.987996,27.4400046 146.804,26.528 C147.620004,25.6159954 148.731993,25.16 150.14,25.16 C150.716003,25.16 151.255997,25.263999 151.76,25.472 C152.264003,25.680001 152.691998,25.9599982 153.044,26.312 L153.068,25.4 L157.604,25.4 Z M149.828,32 C150.212002,32.4320022 150.715997,32.648 151.34,32.648 C151.884003,32.648 152.395998,32.5040014 152.876,32.216 L152.852,28.232 C152.355998,27.8799982 151.836003,27.704 151.292,27.704 C150.667997,27.704 150.172002,27.9239978 149.804,28.364 C149.435998,28.8040022 149.252,29.423996 149.252,30.224 C149.252,30.9760038 149.443998,31.5679978 149.828,32 Z M168.38,30.752 L161.756,30.752 C161.900001,31.360003 162.199998,31.8199984 162.656,32.132 C163.112002,32.4440016 163.675997,32.6 164.348,32.6 C165.452006,32.6 166.443996,32.2560034 167.324,31.568 L168.308,33.68 C167.747997,34.1760025 167.088004,34.5639986 166.328,34.844 C165.567996,35.1240014 164.748004,35.264 163.868,35.264 C162.187992,35.264 160.848005,34.8160045 159.848,33.92 C158.847995,33.0239955 158.348,31.7840079 158.348,30.2 C158.348,29.207995 158.571998,28.3280038 159.02,27.56 C159.468002,26.7919962 160.091996,26.1960021 160.892,25.772 C161.692004,25.3479979 162.595995,25.136 163.604,25.136 C165.092007,25.136 166.259996,25.5919954 167.108,26.504 C167.956004,27.4160046 168.38,28.6159926 168.38,30.104 L168.38,30.752 Z M165.092,29.24 C165.092,28.6799972 164.952001,28.2400016 164.672,27.92 C164.391999,27.5999984 163.996003,27.44 163.484,27.44 C162.987998,27.44 162.588002,27.5959984 162.284,27.908 C161.979998,28.2200016 161.788,28.6639971 161.708,29.24 L165.092,29.24 Z M169.7,25.376 C170.180002,25.3599999 170.531999,25.2000015 170.756,24.896 C170.980001,24.5919985 171.092,24.0960034 171.092,23.408 L169.676,23.408 L169.676,20.408 L172.892,20.408 L172.892,22.808 C172.892,24.1040065 172.644002,25.055997 172.148,25.664 C171.651998,26.272003 170.836006,26.576 169.7,26.576 L169.7,25.376 Z M183.308,30.008 C183.868003,30.5040025 184.148,31.2319952 184.148,32.192 C184.148,33.1520048 183.816003,33.8999973 183.152,34.436 C182.487997,34.9720027 181.644005,35.24 180.62,35.24 C179.995997,35.24 179.416003,35.1600008 178.88,35 C178.343997,34.8399992 177.892002,34.6160014 177.524,34.328 L177.524,35 L175.292,35 L175.292,31.832 L177.38,31.832 L177.452,32.72 C178.108003,33.1520022 178.835996,33.368 179.636,33.368 C180.020002,33.368 180.327999,33.2960007 180.56,33.152 C180.792001,33.0079993 180.908,32.8080013 180.908,32.552 C180.908,32.2479985 180.788001,32.0200008 180.548,31.868 C180.307999,31.7159992 179.884003,31.5680007 179.276,31.424 L178.412,31.256 C177.275994,30.9999987 176.468002,30.6400023 175.988,30.176 C175.507998,29.7119977 175.268,29.0480043 175.268,28.184 C175.268,27.2559954 175.591997,26.5200027 176.24,25.976 C176.888003,25.4319973 177.763994,25.16 178.868,25.16 C179.892005,25.16 180.755996,25.3919977 181.46,25.856 L181.46,25.376 L183.692,25.376 L183.692,28.4 L181.604,28.4 L181.484,27.416 C181.243999,27.2879994 180.960002,27.1800004 180.632,27.092 C180.303998,27.0039996 179.996001,26.96 179.708,26.96 C179.355998,26.96 179.072001,27.0319993 178.856,27.176 C178.639999,27.3200007 178.532,27.5199987 178.532,27.776 C178.532,28.0320013 178.627999,28.2239994 178.82,28.352 C179.012001,28.4800006 179.307998,28.5919995 179.708,28.688 L180.716,28.88 C181.884006,29.1360013 182.747997,29.5119975 183.308,30.008 Z" id="KnottAverage’s" fill="#FFFFFF"></path>
                <path d="M29.544,59.768 L32.936,59.768 C33.9600051,59.768 34.8133299,59.6026683 35.496,59.272 C36.1786701,58.9413317 36.7173314,58.5253358 37.112,58.024 C37.5066686,57.5226642 37.7839992,56.9893362 37.944,56.424 C38.1040008,55.8586638 38.184,55.3413357 38.184,54.872 C38.184,54.2959971 38.0720011,53.7253362 37.848,53.16 C37.6239989,52.5946638 37.2986688,52.0933355 36.872,51.656 C36.4453312,51.2186645 35.9013366,50.866668 35.24,50.6 C34.5786634,50.333332 33.8213376,50.2 32.968,50.2 L29.544,50.2 L29.544,59.768 Z M27.368,71 L27.368,48.152 L32.904,48.152 C33.8640048,48.152 34.7919955,48.285332 35.688,48.552 C36.5840045,48.818668 37.3786632,49.2293306 38.072,49.784 C38.7653368,50.3386694 39.3199979,51.0319958 39.736,51.864 C40.1520021,52.6960042 40.36,53.6879942 40.36,54.84 C40.36,55.714671 40.2213347,56.5733291 39.944,57.416 C39.6666653,58.2586709 39.2346696,59.0053301 38.648,59.656 C38.0613304,60.3066699 37.2986714,60.8346646 36.36,61.24 C35.4213286,61.6453354 34.2906733,61.848 32.968,61.848 L29.544,61.848 L29.544,71 L27.368,71 Z M43.208,53.56 C43.208,53.1973315 43.341332,52.8933346 43.608,52.648 C43.874668,52.4026654 44.1679984,52.28 44.488,52.28 C44.8080016,52.28 45.0959987,52.4026654 45.352,52.648 C45.6080013,52.8933346 45.736,53.1973315 45.736,53.56 C45.736,53.9440019 45.6080013,54.2533322 45.352,54.488 C45.0959987,54.7226678 44.8080016,54.84 44.488,54.84 C44.1679984,54.84 43.874668,54.7226678 43.608,54.488 C43.341332,54.2533322 43.208,53.9440019 43.208,53.56 Z M45.352,71 L43.592,71 L43.592,58.2 L45.352,58.2 L45.352,71 Z M52.84,64.376 C52.114663,63.3519949 51.3680038,62.3226718 50.6,61.288 C49.8319962,60.2533282 49.0746704,59.2240051 48.328,58.2 L50.504,58.2 C51.1013363,59.0960045 51.6773306,59.9119963 52.232,60.648 C52.7866694,61.3840037 53.3733302,62.189329 53.992,63.064 C54.5893363,62.189329 55.1653306,61.3840037 55.72,60.648 C56.2746694,59.9119963 56.8506637,59.106671 57.448,58.232 L59.432,58.232 C59.0479981,58.7866694 58.6800018,59.3199974 58.328,59.832 C57.9759982,60.3440026 57.6186685,60.8453309 57.256,61.336 C56.8933315,61.8266691 56.5253352,62.3279974 56.152,62.84 C55.7786648,63.3520026 55.4000019,63.8959971 55.016,64.472 C55.7626704,65.4960051 56.5626624,66.5839942 57.416,67.736 C58.2693376,68.8880058 59.058663,69.9759949 59.784,71 L57.576,71 C56.9359968,70.125329 56.3013365,69.288004 55.672,68.488 C55.0426635,67.687996 54.4186698,66.850671 53.8,65.976 C53.1813302,66.850671 52.5840029,67.6826627 52.008,68.472 C51.4319971,69.2613373 50.8346698,70.1039955 50.216,71 L48.232,71 C48.9786704,69.8906611 49.7466627,68.7866722 50.536,67.688 C51.3253373,66.5893278 52.0933296,65.4853389 52.84,64.376 Z M72.712,69.464 C72.0933302,70.0186694 71.3680042,70.4559984 70.536,70.776 C69.7039958,71.0960016 68.8400045,71.256 67.944,71.256 C67.0053286,71.256 66.1253374,71.0800018 65.304,70.728 C64.4826626,70.3759982 63.768003,69.9013363 63.16,69.304 C62.551997,68.7066637 62.0720018,68.0026707 61.72,67.192 C61.3679982,66.3813293 61.192,65.5173379 61.192,64.6 C61.192,63.6826621 61.3679982,62.8133374 61.72,61.992 C62.0720018,61.1706626 62.551997,60.456003 63.16,59.848 C63.768003,59.239997 64.4773293,58.7600018 65.288,58.408 C66.0986707,58.0559982 66.9626621,57.88 67.88,57.88 C69.288007,57.88 70.5093282,58.3066624 71.544,59.16 C72.5786718,60.0133376 73.3413309,61.1013267 73.832,62.424 C73.106663,62.7013347 72.3013378,63.0159982 71.416,63.368 C70.5306622,63.7200018 69.6240046,64.0826648 68.696,64.456 C67.7679954,64.8293352 66.8453379,65.2026648 65.928,65.576 C65.0106621,65.9493352 64.1573373,66.2959984 63.368,66.616 C63.7520019,67.490671 64.343996,68.194664 65.144,68.728 C65.944004,69.261336 66.8559949,69.528 67.88,69.528 C68.5626701,69.528 69.2133302,69.4106678 69.832,69.176 C70.4506698,68.9413322 70.9733312,68.6213354 71.4,68.216 L72.712,69.464 Z M71.624,61.976 C71.2613315,61.250663 70.7493366,60.6800021 70.088,60.264 C69.4266634,59.8479979 68.6906707,59.64 67.88,59.64 C67.1973299,59.64 66.5573363,59.773332 65.96,60.04 C65.3626637,60.306668 64.8400022,60.6639978 64.392,61.112 C63.9439978,61.5600022 63.5920013,62.0773304 63.336,62.664 C63.0799987,63.2506696 62.952,63.8746634 62.952,64.536 C62.952,64.877335 62.9839997,65.1759987 63.048,65.432 C63.7093366,65.1546653 64.4133296,64.8666682 65.16,64.568 C65.9066704,64.2693318 66.6533296,63.9653349 67.4,63.656 C68.1466704,63.3466651 68.882663,63.0480014 69.608,62.76 C70.333337,62.4719986 71.0053302,62.2106678 71.624,61.976 Z M78.536,71 L76.776,71 L76.776,46.488 L78.536,46.488 L78.536,71 Z M89.704,59.416 L88.744,60.664 C88.5733325,60.4293322 88.2373358,60.2106677 87.736,60.008 C87.2346642,59.8053323 86.7280026,59.704 86.216,59.704 C86.0026656,59.704 85.7733346,59.7359997 85.528,59.8 C85.2826654,59.8640003 85.0586677,59.9653326 84.856,60.104 C84.6533323,60.2426674 84.4826674,60.4239989 84.344,60.648 C84.2053326,60.8720011 84.136,61.1439984 84.136,61.464 C84.136,61.9546691 84.2853318,62.3439986 84.584,62.632 C84.8826682,62.9200014 85.2559978,63.1706656 85.704,63.384 C86.1520022,63.5973344 86.6373307,63.799999 87.16,63.992 C87.6826693,64.184001 88.1679978,64.4186653 88.616,64.696 C89.0640022,64.9733347 89.4373318,65.3306645 89.736,65.768 C90.0346682,66.2053355 90.184,66.7653299 90.184,67.448 C90.184,68.514672 89.821337,69.4159963 89.096,70.152 C88.370663,70.8880037 87.3360067,71.256 85.992,71.256 C85.266663,71.256 84.5253371,71.1280013 83.768,70.872 C83.0106629,70.6159987 82.3973357,70.2106694 81.928,69.656 C82.0133338,69.5706662 82.1199994,69.4533341 82.248,69.304 C82.3760006,69.1546659 82.4933328,69.0160006 82.6,68.888 C82.7066672,68.7599994 82.797333,68.6480005 82.872,68.552 C82.946667,68.4559995 82.9946666,68.408 83.016,68.408 C83.0800003,68.5146672 83.2186656,68.6319994 83.432,68.76 C83.6453344,68.8880006 83.8906653,69.0106661 84.168,69.128 C84.4453347,69.2453339 84.7439984,69.3466662 85.064,69.432 C85.3840016,69.5173338 85.6933318,69.56 85.992,69.56 C86.2480013,69.56 86.5199986,69.522667 86.808,69.448 C87.0960014,69.373333 87.3626654,69.2506675 87.608,69.08 C87.8533346,68.9093325 88.0506659,68.6960013 88.2,68.44 C88.3493341,68.1839987 88.424,67.8746685 88.424,67.512 C88.424,67.0213309 88.2746682,66.6320014 87.976,66.344 C87.6773318,66.0559986 87.3040022,65.8053344 86.856,65.592 C86.4079978,65.3786656 85.917336,65.1813342 85.384,65 C84.850664,64.8186658 84.3600022,64.5893347 83.912,64.312 C83.4639978,64.0346653 83.0906682,63.6720022 82.792,63.224 C82.4933318,62.7759978 82.344,62.2000035 82.344,61.496 C82.344,60.8559968 82.4613322,60.3173355 82.696,59.88 C82.9306678,59.4426645 83.2293315,59.0800014 83.592,58.792 C83.9546685,58.5039986 84.365331,58.2960006 84.824,58.168 C85.282669,58.0399994 85.7253312,57.976 86.152,57.976 C86.7066694,57.976 87.3146634,58.0933322 87.976,58.328 C88.6373366,58.5626678 89.2133309,58.9253309 89.704,59.416 Z M100.52,64.664 C100.52,63.7466621 100.695998,62.8773374 101.048,62.056 C101.400002,61.2346626 101.879997,60.5146698 102.488,59.896 C103.096003,59.2773302 103.805329,58.7920018 104.616,58.44 C105.426671,58.0879982 106.290662,57.912 107.208,57.912 C107.848003,57.912 108.445331,57.9973325 109,58.168 C109.554669,58.3386675 110.050664,58.5679986 110.488,58.856 C110.925336,59.1440014 111.293332,59.4639982 111.592,59.816 C111.890668,60.1680018 112.114666,60.514665 112.264,60.856 L112.392,58.2 L114.024,58.2 L114.024,71 L112.264,71 L112.264,69.688 C112.264,69.4533322 112.269333,69.2293344 112.28,69.016 C112.290667,68.8026656 112.296,68.600001 112.296,68.408 C112.146666,68.7706685 111.922668,69.1173317 111.624,69.448 C111.325332,69.7786683 110.957336,70.0826653 110.52,70.36 C110.082664,70.6373347 109.586669,70.8559992 109.032,71.016 C108.477331,71.1760008 107.869337,71.256 107.208,71.256 C106.247995,71.256 105.357337,71.0800018 104.536,70.728 C103.714663,70.3759982 103.01067,69.9013363 102.424,69.304 C101.83733,68.7066637 101.373335,68.008004 101.032,67.208 C100.690665,66.407996 100.52,65.5600045 100.52,64.664 Z M102.28,64.568 C102.28,65.2720035 102.407999,65.9226637 102.664,66.52 C102.920001,67.1173363 103.271998,67.6399978 103.72,68.088 C104.168002,68.5360022 104.695997,68.8879987 105.304,69.144 C105.912003,69.4000013 106.567996,69.528 107.272,69.528 C107.976004,69.528 108.631997,69.4000013 109.24,69.144 C109.848003,68.8879987 110.375998,68.5360022 110.824,68.088 C111.272002,67.6399978 111.623999,67.1173363 111.88,66.52 C112.136001,65.9226637 112.264,65.2720035 112.264,64.568 C112.264,63.8853299 112.136001,63.2453363 111.88,62.648 C111.623999,62.0506637 111.272002,61.5280022 110.824,61.08 C110.375998,60.6319978 109.848003,60.2800013 109.24,60.024 C108.631997,59.7679987 107.976004,59.64 107.272,59.64 C106.567996,59.64 105.912003,59.7679987 105.304,60.024 C104.695997,60.2800013 104.168002,60.6266645 103.72,61.064 C103.271998,61.5013355 102.920001,62.0186637 102.664,62.616 C102.407999,63.2133363 102.28,63.8639965 102.28,64.568 Z M118.44,58.2 L119.944,58.2 L120.104,61.496 C120.573336,60.429328 121.266662,59.5653366 122.184,58.904 C123.101338,58.2426634 124.199994,57.912 125.48,57.912 C126.738673,57.912 127.735996,58.2639965 128.472,58.968 C129.208004,59.6720035 129.597333,60.5999942 129.64,61.752 L129.64,71 L127.88,71 L127.88,62.36 C127.837333,61.634663 127.581336,61.0160026 127.112,60.504 C126.642664,59.9919974 125.938671,59.7146669 125,59.672 C124.31733,59.672 123.688003,59.7839989 123.112,60.008 C122.535997,60.2320011 122.029336,60.5466646 121.592,60.952 C121.154664,61.3573354 120.813335,61.8373306 120.568,62.392 C120.322665,62.9466694 120.2,63.5546634 120.2,64.216 L120.2,71 L118.44,71 L118.44,58.2 Z M132.968,64.6 C132.968,63.6399952 133.138665,62.7493374 133.48,61.928 C133.821335,61.1066626 134.28533,60.4026696 134.872,59.816 C135.45867,59.2293304 136.151996,58.765335 136.952,58.424 C137.752004,58.082665 138.621329,57.912 139.56,57.912 C140.221337,57.912 140.829331,57.9973325 141.384,58.168 C141.938669,58.3386675 142.434664,58.5626653 142.872,58.84 C143.309336,59.1173347 143.682665,59.4373315 143.992,59.8 C144.301335,60.1626685 144.541332,60.5253315 144.712,60.888 L144.712,46.488 L146.472,46.488 L146.472,71 L144.712,71 L144.712,69.688 C144.712,69.4533322 144.722667,69.2240011 144.744,69 C144.765333,68.7759989 144.776,68.5573344 144.776,68.344 C144.349331,69.1333373 143.688004,69.8159971 142.792,70.392 C141.895996,70.9680029 140.808006,71.256 139.528,71.256 C138.546662,71.256 137.656004,71.0800018 136.856,70.728 C136.055996,70.3759982 135.368003,69.9013363 134.792,69.304 C134.215997,68.7066637 133.768002,68.0026707 133.448,67.192 C133.127998,66.3813293 132.968,65.5173379 132.968,64.6 Z M134.728,64.568 C134.728,65.2720035 134.855999,65.9226637 135.112,66.52 C135.368001,67.1173363 135.719998,67.6399978 136.168,68.088 C136.616002,68.5360022 137.143997,68.8879987 137.752,69.144 C138.360003,69.4000013 139.015996,69.528 139.72,69.528 C140.424004,69.528 141.079997,69.4000013 141.688,69.144 C142.296003,68.8879987 142.823998,68.5360022 143.272,68.088 C143.720002,67.6399978 144.071999,67.1173363 144.328,66.52 C144.584001,65.9226637 144.712,65.2720035 144.712,64.568 C144.712,63.8853299 144.584001,63.2453363 144.328,62.648 C144.071999,62.0506637 143.720002,61.5280022 143.272,61.08 C142.823998,60.6319978 142.296003,60.2800013 141.688,60.024 C141.079997,59.7679987 140.424004,59.64 139.72,59.64 C139.015996,59.64 138.360003,59.7679987 137.752,60.024 C137.143997,60.2800013 136.616002,60.6266645 136.168,61.064 C135.719998,61.5013355 135.368001,62.0186637 135.112,62.616 C134.855999,63.2133363 134.728,63.8639965 134.728,64.568 Z M162.024,59.768 L165.416,59.768 C166.440005,59.768 167.29333,59.6026683 167.976,59.272 C168.65867,58.9413317 169.197331,58.5253358 169.592,58.024 C169.986669,57.5226642 170.263999,56.9893362 170.424,56.424 C170.584001,55.8586638 170.664,55.3413357 170.664,54.872 C170.664,54.2959971 170.552001,53.7253362 170.328,53.16 C170.103999,52.5946638 169.778669,52.0933355 169.352,51.656 C168.925331,51.2186645 168.381337,50.866668 167.72,50.6 C167.058663,50.333332 166.301338,50.2 165.448,50.2 L162.024,50.2 L162.024,59.768 Z M159.848,71 L159.848,48.152 L165.384,48.152 C166.344005,48.152 167.271996,48.285332 168.168,48.552 C169.064004,48.818668 169.858663,49.2293306 170.552,49.784 C171.245337,50.3386694 171.799998,51.0319958 172.216,51.864 C172.632002,52.6960042 172.84,53.6879942 172.84,54.84 C172.84,55.714671 172.701335,56.5733291 172.424,57.416 C172.146665,58.2586709 171.71467,59.0053301 171.128,59.656 C170.54133,60.3066699 169.778671,60.8346646 168.84,61.24 C167.901329,61.6453354 166.770673,61.848 165.448,61.848 L162.024,61.848 L162.024,71 L159.848,71 Z M184.424,69.464 C183.80533,70.0186694 183.080004,70.4559984 182.248,70.776 C181.415996,71.0960016 180.552004,71.256 179.656,71.256 C178.717329,71.256 177.837337,71.0800018 177.016,70.728 C176.194663,70.3759982 175.480003,69.9013363 174.872,69.304 C174.263997,68.7066637 173.784002,68.0026707 173.432,67.192 C173.079998,66.3813293 172.904,65.5173379 172.904,64.6 C172.904,63.6826621 173.079998,62.8133374 173.432,61.992 C173.784002,61.1706626 174.263997,60.456003 174.872,59.848 C175.480003,59.239997 176.189329,58.7600018 177,58.408 C177.810671,58.0559982 178.674662,57.88 179.592,57.88 C181.000007,57.88 182.221328,58.3066624 183.256,59.16 C184.290672,60.0133376 185.053331,61.1013267 185.544,62.424 C184.818663,62.7013347 184.013338,63.0159982 183.128,63.368 C182.242662,63.7200018 181.336005,64.0826648 180.408,64.456 C179.479995,64.8293352 178.557338,65.2026648 177.64,65.576 C176.722662,65.9493352 175.869337,66.2959984 175.08,66.616 C175.464002,67.490671 176.055996,68.194664 176.856,68.728 C177.656004,69.261336 178.567995,69.528 179.592,69.528 C180.27467,69.528 180.92533,69.4106678 181.544,69.176 C182.16267,68.9413322 182.685331,68.6213354 183.112,68.216 L184.424,69.464 Z M183.336,61.976 C182.973332,61.250663 182.461337,60.6800021 181.8,60.264 C181.138663,59.8479979 180.402671,59.64 179.592,59.64 C178.90933,59.64 178.269336,59.773332 177.672,60.04 C177.074664,60.306668 176.552002,60.6639978 176.104,61.112 C175.655998,61.5600022 175.304001,62.0773304 175.048,62.664 C174.791999,63.2506696 174.664,63.8746634 174.664,64.536 C174.664,64.877335 174.696,65.1759987 174.76,65.432 C175.421337,65.1546653 176.12533,64.8666682 176.872,64.568 C177.61867,64.2693318 178.36533,63.9653349 179.112,63.656 C179.85867,63.3466651 180.594663,63.0480014 181.32,62.76 C182.045337,62.4719986 182.71733,62.2106678 183.336,61.976 Z M188.456,58.2 L189.96,58.2 L190.12,61.496 C190.589336,60.429328 191.282662,59.5653366 192.2,58.904 C193.117338,58.2426634 194.215994,57.912 195.496,57.912 C196.754673,57.912 197.751996,58.2639965 198.488,58.968 C199.224004,59.6720035 199.613333,60.5999942 199.656,61.752 L199.656,71 L197.896,71 L197.896,62.36 C197.853333,61.634663 197.597336,61.0160026 197.128,60.504 C196.658664,59.9919974 195.954671,59.7146669 195.016,59.672 C194.33333,59.672 193.704003,59.7839989 193.128,60.008 C192.551997,60.2320011 192.045336,60.5466646 191.608,60.952 C191.170664,61.3573354 190.829335,61.8373306 190.584,62.392 C190.338665,62.9466694 190.216,63.5546634 190.216,64.216 L190.216,71 L188.456,71 L188.456,58.2 Z M212.84,68.472 L213.928,69.784 C213.351997,70.2533357 212.70667,70.6159987 211.992,70.872 C211.27733,71.1280013 210.514671,71.256 209.704,71.256 C208.765329,71.256 207.885337,71.0800018 207.064,70.728 C206.242663,70.3759982 205.528003,69.9013363 204.92,69.304 C204.311997,68.7066637 203.832002,68.0026707 203.48,67.192 C203.127998,66.3813293 202.952,65.5173379 202.952,64.6 C202.952,63.6826621 203.127998,62.8133374 203.48,61.992 C203.832002,61.1706626 204.311997,60.4613363 204.92,59.864 C205.528003,59.2666637 206.242663,58.7920018 207.064,58.44 C207.885337,58.0879982 208.765329,57.912 209.704,57.912 C210.514671,57.912 211.282663,58.0399987 212.008,58.296 C212.733337,58.5520013 213.383997,58.9146643 213.96,59.384 C213.789332,59.6186678 213.608001,59.8373323 213.416,60.04 C213.223999,60.2426677 213.032001,60.4613322 212.84,60.696 C211.965329,59.9919965 210.920006,59.64 209.704,59.64 C208.999996,59.64 208.344003,59.7679987 207.736,60.024 C207.127997,60.2800013 206.600002,60.6266645 206.152,61.064 C205.703998,61.5013355 205.352001,62.023997 205.096,62.632 C204.839999,63.240003 204.712,63.8959965 204.712,64.6 C204.712,65.2826701 204.839999,65.9226637 205.096,66.52 C205.352001,67.1173363 205.703998,67.6399978 206.152,68.088 C206.600002,68.5360022 207.127997,68.8879987 207.736,69.144 C208.344003,69.4000013 208.999996,69.528 209.704,69.528 C210.920006,69.528 211.965329,69.1760035 212.84,68.472 Z M216.744,53.56 C216.744,53.1973315 216.877332,52.8933346 217.144,52.648 C217.410668,52.4026654 217.703998,52.28 218.024,52.28 C218.344002,52.28 218.631999,52.4026654 218.888,52.648 C219.144001,52.8933346 219.272,53.1973315 219.272,53.56 C219.272,53.9440019 219.144001,54.2533322 218.888,54.488 C218.631999,54.7226678 218.344002,54.84 218.024,54.84 C217.703998,54.84 217.410668,54.7226678 217.144,54.488 C216.877332,54.2533322 216.744,53.9440019 216.744,53.56 Z M218.888,71 L217.128,71 L217.128,58.2 L218.888,58.2 L218.888,71 Z M225.064,71 L223.304,71 L223.304,46.488 L225.064,46.488 L225.064,71 Z M236.232,59.416 L235.272,60.664 C235.101332,60.4293322 234.765336,60.2106677 234.264,60.008 C233.762664,59.8053323 233.256003,59.704 232.744,59.704 C232.530666,59.704 232.301335,59.7359997 232.056,59.8 C231.810665,59.8640003 231.586668,59.9653326 231.384,60.104 C231.181332,60.2426674 231.010667,60.4239989 230.872,60.648 C230.733333,60.8720011 230.664,61.1439984 230.664,61.464 C230.664,61.9546691 230.813332,62.3439986 231.112,62.632 C231.410668,62.9200014 231.783998,63.1706656 232.232,63.384 C232.680002,63.5973344 233.165331,63.799999 233.688,63.992 C234.210669,64.184001 234.695998,64.4186653 235.144,64.696 C235.592002,64.9733347 235.965332,65.3306645 236.264,65.768 C236.562668,66.2053355 236.712,66.7653299 236.712,67.448 C236.712,68.514672 236.349337,69.4159963 235.624,70.152 C234.898663,70.8880037 233.864007,71.256 232.52,71.256 C231.794663,71.256 231.053337,71.1280013 230.296,70.872 C229.538663,70.6159987 228.925336,70.2106694 228.456,69.656 C228.541334,69.5706662 228.647999,69.4533341 228.776,69.304 C228.904001,69.1546659 229.021333,69.0160006 229.128,68.888 C229.234667,68.7599994 229.325333,68.6480005 229.4,68.552 C229.474667,68.4559995 229.522667,68.408 229.544,68.408 C229.608,68.5146672 229.746666,68.6319994 229.96,68.76 C230.173334,68.8880006 230.418665,69.0106661 230.696,69.128 C230.973335,69.2453339 231.271998,69.3466662 231.592,69.432 C231.912002,69.5173338 232.221332,69.56 232.52,69.56 C232.776001,69.56 233.047999,69.522667 233.336,69.448 C233.624001,69.373333 233.890665,69.2506675 234.136,69.08 C234.381335,68.9093325 234.578666,68.6960013 234.728,68.44 C234.877334,68.1839987 234.952,67.8746685 234.952,67.512 C234.952,67.0213309 234.802668,66.6320014 234.504,66.344 C234.205332,66.0559986 233.832002,65.8053344 233.384,65.592 C232.935998,65.3786656 232.445336,65.1813342 231.912,65 C231.378664,64.8186658 230.888002,64.5893347 230.44,64.312 C229.991998,64.0346653 229.618668,63.6720022 229.32,63.224 C229.021332,62.7759978 228.872,62.2000035 228.872,61.496 C228.872,60.8559968 228.989332,60.3173355 229.224,59.88 C229.458668,59.4426645 229.757332,59.0800014 230.12,58.792 C230.482668,58.5039986 230.893331,58.2960006 231.352,58.168 C231.810669,58.0399994 232.253331,57.976 232.68,57.976 C233.234669,57.976 233.842663,58.0933322 234.504,58.328 C235.165337,58.5626678 235.741331,58.9253309 236.232,59.416 Z" id="Pixels-and-Pencils" fill="#EEE3FE"></path>
            </g>
        </g>
    </g>
</svg>