<svg width="291" height="99" viewBox="0 0 291 99" xmlns="http://www.w3.org/2000/svg" xmlns:xlink="http://www.w3.org/1999/xlink"><title>Logo</title><defs><path id="b" d="M0 0h289v93H0z"/><filter x="-1.7%" y="-3.2%" width="103.5%" height="112.9%" filterUnits="objectBoundingBox" id="a"><feOffset dy="4" in="SourceAlpha" result="shadowOffsetOuter1"/><feGaussianBlur stdDeviation="1" in="shadowOffsetOuter1" result="shadowBlurOuter1"/><feColorMatrix values="0 0 0 0 0 0 0 0 0 0 0 0 0 0 0 0 0 0 0.5 0" in="shadowBlurOuter1"/></filter></defs><g fill="none" fill-rule="evenodd"><g><use fill="#000" filter="url(#a)" xlink:href="#b"/><use fill="#6336A0" xlink:href="#b"/></g><path d="M26.972 35v-2.448h1.368V23.6h-1.368v-2.472h6.84V23.6H32.42v4.008L36.5 23.6h-1.2v-2.472h6.336V23.6h-1.104l-4.296 4.248 4.584 4.704h1.104V35h-6.672v-2.448h1.056l-3.888-4.128v4.128h1.392V35h-6.84zm28.44-2.112V35h-5.808v-2.112h1.008v-3.816c0-.48-.112-.852-.336-1.116-.224-.264-.536-.396-.936-.396-.496 0-1.008.152-1.536.456v4.872h1.032V35H42.98v-2.112h1.248v-5.4H42.98V25.4h4.56l.048.864c1.088-.736 2.192-1.104 3.312-1.104 1.024 0 1.828.308 2.412.924.584.616.876 1.42.876 2.412v4.392h1.224zm3.18 1.74c-.808-.424-1.436-1.02-1.884-1.788-.448-.768-.672-1.656-.672-2.664 0-.992.224-1.872.672-2.64.448-.768 1.076-1.36 1.884-1.776.808-.416 1.74-.624 2.796-.624 1.056 0 1.988.208 2.796.624.808.416 1.436 1.008 1.884 1.776.448.768.672 1.648.672 2.64 0 1.008-.224 1.896-.672 2.664-.448.768-1.076 1.364-1.884 1.788-.808.424-1.74.636-2.796.636-1.056 0-1.988-.212-2.796-.636zm4.284-2.676c.368-.432.552-1.024.552-1.776 0-.736-.184-1.316-.552-1.74-.368-.424-.864-.636-1.488-.636-.64 0-1.14.212-1.5.636-.36.424-.54 1.004-.54 1.74 0 .752.18 1.344.54 1.776.36.432.86.64 1.5.624.624.016 1.12-.192 1.488-.624zm5.88.192v-4.656h-1.2V25.4h1.176v-3.12l3.576-.6v3.72h2.16v2.088h-2.16v4.056c0 .464.084.792.252.984.168.192.46.288.876.288h1.104V35h-2.688c-2.064 0-3.096-.952-3.096-2.856zm7.872 0v-4.656h-1.2V25.4h1.176v-3.12l3.576-.6v3.72h2.16v2.088h-2.16v4.056c0 .464.084.792.252.984.168.192.46.288.876.288h1.104V35h-2.688c-2.064 0-3.096-.952-3.096-2.856zM83.444 35v-2.448h1.416l3.384-8.952H86.9v-2.472h9.552V23.6h-1.368l3.432 8.952h1.392V35h-7.056v-2.448h1.536l-.792-2.448H89.3l-.792 2.448h1.344V35h-6.408zm6.6-7.2H92.9l-1.32-4.2h-.144l-1.392 4.2zm15.024 7.2l-3.624-7.512h-.96V25.4h5.808v2.088h-1.008l1.848 4.248 1.824-4.248h-1.008V25.4h4.704v2.088h-.912L108.14 35h-3.072zm18.096-4.248h-6.624c.144.608.444 1.068.9 1.38.456.312 1.02.468 1.692.468 1.104 0 2.096-.344 2.976-1.032l.984 2.112c-.56.496-1.22.884-1.98 1.164-.76.28-1.58.42-2.46.42-1.68 0-3.02-.448-4.02-1.344-1-.896-1.5-2.136-1.5-3.72 0-.992.224-1.872.672-2.64.448-.768 1.072-1.364 1.872-1.788.8-.424 1.704-.636 2.712-.636 1.488 0 2.656.456 3.504 1.368.848.912 1.272 2.112 1.272 3.6v.648zm-3.288-1.512c0-.56-.14-1-.42-1.32-.28-.32-.676-.48-1.188-.48-.496 0-.896.156-1.2.468-.304.312-.496.756-.576 1.332h3.384zm13.512-3.624l-.744 2.88c-.64-.336-1.296-.504-1.968-.504-.464 0-.872.132-1.224.396s-.528.66-.528 1.188v3.312h1.368V35h-6.168v-2.112h1.248v-5.4h-1.248V25.4h4.8v1.872c.64-1.392 1.52-2.088 2.64-2.088.608 0 1.216.144 1.824.432zm11.4 7.272V35h-4.08l-.264-.84c-.88.72-1.888 1.08-3.024 1.08-.976 0-1.752-.256-2.328-.768-.576-.512-.864-1.192-.864-2.04 0-1.024.36-1.776 1.08-2.256.72-.48 1.632-.72 2.736-.72.752 0 1.456.096 2.112.288v-.456c0-1.2-.608-1.8-1.824-1.8-.864 0-1.92.272-3.168.816l-.792-2.04c1.568-.736 3.176-1.104 4.824-1.104 1.408 0 2.5.344 3.276 1.032.776.688 1.164 1.648 1.164 2.88v3.816h1.152zm-7.068.192c.216.208.524.312.924.312.56 0 1.064-.192 1.512-.576v-1.608c-.432-.144-.864-.216-1.296-.216-.416 0-.764.1-1.044.3-.28.2-.42.508-.42.924 0 .368.108.656.324.864zm19.884-7.68v2.088h-1.176v7.008c0 1.696-.468 2.984-1.404 3.864-.936.88-2.228 1.32-3.876 1.32-1.296 0-2.728-.256-4.296-.768l.576-2.184c1.12.368 2.144.552 3.072.552.784 0 1.376-.196 1.776-.588.4-.392.6-.964.6-1.716v-.648c-.384.288-.792.504-1.224.648-.432.144-.928.216-1.488.216-1.408 0-2.524-.448-3.348-1.344-.824-.896-1.236-2.112-1.236-3.648s.408-2.76 1.224-3.672c.816-.912 1.928-1.368 3.336-1.368.576 0 1.116.104 1.62.312.504.208.932.488 1.284.84l.024-.912h4.536zm-7.776 6.6c.384.432.888.648 1.512.648.544 0 1.056-.144 1.536-.432l-.024-3.984c-.496-.352-1.016-.528-1.56-.528-.624 0-1.12.22-1.488.66-.368.44-.552 1.06-.552 1.86 0 .752.192 1.344.576 1.776zm18.552-1.248h-6.624c.144.608.444 1.068.9 1.38.456.312 1.02.468 1.692.468 1.104 0 2.096-.344 2.976-1.032l.984 2.112c-.56.496-1.22.884-1.98 1.164-.76.28-1.58.42-2.46.42-1.68 0-3.02-.448-4.02-1.344-1-.896-1.5-2.136-1.5-3.72 0-.992.224-1.872.672-2.64.448-.768 1.072-1.364 1.872-1.788.8-.424 1.704-.636 2.712-.636 1.488 0 2.656.456 3.504 1.368.848.912 1.272 2.112 1.272 3.6v.648zm-3.288-1.512c0-.56-.14-1-.42-1.32-.28-.32-.676-.48-1.188-.48-.496 0-.896.156-1.2.468-.304.312-.496.756-.576 1.332h3.384zm4.608-3.864c.48-.016.832-.176 1.056-.48.224-.304.336-.8.336-1.488h-1.416v-3h3.216v2.4c0 1.296-.248 2.248-.744 2.856-.496.608-1.312.912-2.448.912v-1.2zm13.608 4.632c.56.496.84 1.224.84 2.184 0 .96-.332 1.708-.996 2.244-.664.536-1.508.804-2.532.804-.624 0-1.204-.08-1.74-.24-.536-.16-.988-.384-1.356-.672V35h-2.232v-3.168h2.088l.072.888c.656.432 1.384.648 2.184.648.384 0 .692-.072.924-.216.232-.144.348-.344.348-.6 0-.304-.12-.532-.36-.684-.24-.152-.664-.3-1.272-.444l-.864-.168c-1.136-.256-1.944-.616-2.424-1.08-.48-.464-.72-1.128-.72-1.992 0-.928.324-1.664.972-2.208.648-.544 1.524-.816 2.628-.816 1.024 0 1.888.232 2.592.696v-.48h2.232V28.4h-2.088l-.12-.984c-.24-.128-.524-.236-.852-.324-.328-.088-.636-.132-.924-.132-.352 0-.636.072-.852.216-.216.144-.324.344-.324.6s.096.448.288.576c.192.128.488.24.888.336l1.008.192c1.168.256 2.032.632 2.592 1.128z" fill="#FFF"/><path d="M29.544 59.768h3.392c1.024 0 1.877-.165 2.56-.496.683-.33 1.22-.747 1.616-1.248.395-.5.672-1.035.832-1.6.16-.565.24-1.083.24-1.552 0-.576-.112-1.147-.336-1.712-.224-.565-.55-1.067-.976-1.504-.427-.437-.97-.79-1.632-1.056-.66-.267-1.42-.4-2.272-.4h-3.424v9.568zM27.368 71V48.152h5.536c.96 0 1.888.133 2.784.4.896.267 1.69.677 2.384 1.232.693.555 1.248 1.248 1.664 2.08.416.832.624 1.824.624 2.976 0 .875-.14 1.733-.416 2.576-.277.843-.71 1.59-1.296 2.24-.587.65-1.35 1.18-2.288 1.584-.94.405-2.07.608-3.392.608h-3.424V71h-2.176zm15.84-17.44c0-.363.133-.667.4-.912s.56-.368.88-.368c.32 0 .608.123.864.368s.384.55.384.912c0 .384-.128.693-.384.928-.256.235-.544.352-.864.352-.32 0-.613-.117-.88-.352s-.4-.544-.4-.928zM45.352 71h-1.76V58.2h1.76V71zm7.488-6.624c-.725-1.024-1.472-2.053-2.24-3.088-.768-1.035-1.525-2.064-2.272-3.088h2.176c.597.896 1.173 1.712 1.728 2.448.555.736 1.14 1.54 1.76 2.416.597-.875 1.173-1.68 1.728-2.416.555-.736 1.13-1.54 1.728-2.416h1.984c-.384.555-.752 1.088-1.104 1.6-.352.512-.71 1.013-1.072 1.504-.363.49-.73.992-1.104 1.504-.373.512-.752 1.056-1.136 1.632.747 1.024 1.547 2.112 2.4 3.264.853 1.152 1.643 2.24 2.368 3.264h-2.208c-.64-.875-1.275-1.712-1.904-2.512-.63-.8-1.253-1.637-1.872-2.512-.62.875-1.216 1.707-1.792 2.496-.576.79-1.173 1.632-1.792 2.528h-1.984c.747-1.11 1.515-2.213 2.304-3.312.79-1.1 1.557-2.203 2.304-3.312zm19.872 5.088c-.62.555-1.344.992-2.176 1.312-.832.32-1.696.48-2.592.48-.94 0-1.82-.176-2.64-.528-.82-.352-1.536-.827-2.144-1.424-.608-.597-1.088-1.3-1.44-2.112-.352-.81-.528-1.675-.528-2.592s.176-1.787.528-2.608c.352-.82.832-1.536 1.44-2.144.608-.608 1.317-1.088 2.128-1.44.81-.352 1.675-.528 2.592-.528 1.408 0 2.63.427 3.664 1.28 1.035.853 1.797 1.94 2.288 3.264-.725.277-1.53.592-2.416.944-.885.352-1.792.715-2.72 1.088-.928.373-1.85.747-2.768 1.12l-2.56 1.04c.384.875.976 1.58 1.776 2.112.8.533 1.712.8 2.736.8.683 0 1.333-.117 1.952-.352.62-.235 1.14-.555 1.568-.96l1.312 1.248zm-1.088-7.488c-.363-.725-.875-1.296-1.536-1.712-.66-.416-1.397-.624-2.208-.624-.683 0-1.323.133-1.92.4s-1.12.624-1.568 1.072c-.448.448-.8.965-1.056 1.552-.256.587-.384 1.21-.384 1.872 0 .34.032.64.096.896.66-.277 1.365-.565 2.112-.864.747-.3 1.493-.603 2.24-.912.747-.31 1.483-.608 2.208-.896.725-.288 1.397-.55 2.016-.784zM78.536 71h-1.76V46.488h1.76V71zm11.168-11.584l-.96 1.248c-.17-.235-.507-.453-1.008-.656-.5-.203-1.008-.304-1.52-.304-.213 0-.443.032-.688.096-.245.064-.47.165-.672.304-.203.14-.373.32-.512.544-.14.224-.208.496-.208.816 0 .49.15.88.448 1.168.3.288.672.54 1.12.752.448.213.933.416 1.456.608.523.192 1.008.427 1.456.704.448.277.82.635 1.12 1.072.3.437.448.997.448 1.68 0 1.067-.363 1.968-1.088 2.704-.725.736-1.76 1.104-3.104 1.104-.725 0-1.467-.128-2.224-.384-.757-.256-1.37-.66-1.84-1.216.085-.085.192-.203.32-.352l.352-.416c.107-.128.197-.24.272-.336.075-.096.123-.144.144-.144.064.107.203.224.416.352.213.128.46.25.736.368.277.117.576.22.896.304.32.085.63.128.928.128.256 0 .528-.037.816-.112.288-.075.555-.197.8-.368.245-.17.443-.384.592-.64.15-.256.224-.565.224-.928 0-.49-.15-.88-.448-1.168-.3-.288-.672-.54-1.12-.752-.448-.213-.94-.41-1.472-.592-.533-.18-1.024-.41-1.472-.688-.448-.277-.82-.64-1.12-1.088-.3-.448-.448-1.024-.448-1.728 0-.64.117-1.18.352-1.616.235-.437.533-.8.896-1.088.363-.288.773-.496 1.232-.624.46-.128.9-.192 1.328-.192.555 0 1.163.117 1.824.352.66.235 1.237.597 1.728 1.088zm10.816 5.248c0-.917.176-1.787.528-2.608.352-.82.832-1.54 1.44-2.16.608-.62 1.317-1.104 2.128-1.456.81-.352 1.675-.528 2.592-.528.64 0 1.237.085 1.792.256.555.17 1.05.4 1.488.688.437.288.805.608 1.104.96.3.352.523.7.672 1.04l.128-2.656h1.632V71h-1.76v-1.312c0-.235.005-.46.016-.672.01-.213.016-.416.016-.608-.15.363-.373.71-.672 1.04-.3.33-.667.635-1.104.912-.437.277-.933.496-1.488.656-.555.16-1.163.24-1.824.24-.96 0-1.85-.176-2.672-.528-.82-.352-1.525-.827-2.112-1.424-.587-.597-1.05-1.296-1.392-2.096-.34-.8-.512-1.648-.512-2.544zm1.76-.096c0 .704.128 1.355.384 1.952s.608 1.12 1.056 1.568c.448.448.976.8 1.584 1.056.608.256 1.264.384 1.968.384s1.36-.128 1.968-.384c.608-.256 1.136-.608 1.584-1.056.448-.448.8-.97 1.056-1.568.256-.597.384-1.248.384-1.952 0-.683-.128-1.323-.384-1.92s-.608-1.12-1.056-1.568c-.448-.448-.976-.8-1.584-1.056-.608-.256-1.264-.384-1.968-.384s-1.36.128-1.968.384c-.608.256-1.136.603-1.584 1.04-.448.437-.8.955-1.056 1.552-.256.597-.384 1.248-.384 1.952zm16.16-6.368h1.504l.16 3.296c.47-1.067 1.163-1.93 2.08-2.592.917-.66 2.016-.992 3.296-.992 1.26 0 2.256.352 2.992 1.056.736.704 1.125 1.632 1.168 2.784V71h-1.76v-8.64c-.043-.725-.3-1.344-.768-1.856-.47-.512-1.173-.79-2.112-.832-.683 0-1.312.112-1.888.336-.576.224-1.083.54-1.52.944-.437.405-.78.885-1.024 1.44-.245.555-.368 1.163-.368 1.824V71h-1.76V58.2zm14.528 6.4c0-.96.17-1.85.512-2.672.34-.82.805-1.525 1.392-2.112.587-.587 1.28-1.05 2.08-1.392.8-.34 1.67-.512 2.608-.512.66 0 1.27.085 1.824.256.555.17 1.05.395 1.488.672.437.277.81.597 1.12.96.31.363.55.725.72 1.088v-14.4h1.76V71h-1.76v-1.312c0-.235.01-.464.032-.688.02-.224.032-.443.032-.656-.427.79-1.088 1.472-1.984 2.048-.896.576-1.984.864-3.264.864-.98 0-1.872-.176-2.672-.528-.8-.352-1.488-.827-2.064-1.424-.576-.597-1.024-1.3-1.344-2.112-.32-.81-.48-1.675-.48-2.592zm1.76-.032c0 .704.128 1.355.384 1.952s.608 1.12 1.056 1.568c.448.448.976.8 1.584 1.056.608.256 1.264.384 1.968.384s1.36-.128 1.968-.384c.608-.256 1.136-.608 1.584-1.056.448-.448.8-.97 1.056-1.568.256-.597.384-1.248.384-1.952 0-.683-.128-1.323-.384-1.92s-.608-1.12-1.056-1.568c-.448-.448-.976-.8-1.584-1.056-.608-.256-1.264-.384-1.968-.384s-1.36.128-1.968.384c-.608.256-1.136.603-1.584 1.04-.448.437-.8.955-1.056 1.552-.256.597-.384 1.248-.384 1.952zm27.296-4.8h3.392c1.024 0 1.877-.165 2.56-.496.683-.33 1.22-.747 1.616-1.248.395-.5.672-1.035.832-1.6.16-.565.24-1.083.24-1.552 0-.576-.112-1.147-.336-1.712-.224-.565-.55-1.067-.976-1.504-.427-.437-.97-.79-1.632-1.056-.66-.267-1.42-.4-2.272-.4h-3.424v9.568zM159.848 71V48.152h5.536c.96 0 1.888.133 2.784.4.896.267 1.69.677 2.384 1.232.693.555 1.248 1.248 1.664 2.08.416.832.624 1.824.624 2.976 0 .875-.14 1.733-.416 2.576-.277.843-.71 1.59-1.296 2.24-.587.65-1.35 1.18-2.288 1.584-.94.405-2.07.608-3.392.608h-3.424V71h-2.176zm24.576-1.536c-.62.555-1.344.992-2.176 1.312-.832.32-1.696.48-2.592.48-.94 0-1.82-.176-2.64-.528-.82-.352-1.536-.827-2.144-1.424-.608-.597-1.088-1.3-1.44-2.112-.352-.81-.528-1.675-.528-2.592s.176-1.787.528-2.608c.352-.82.832-1.536 1.44-2.144.608-.608 1.317-1.088 2.128-1.44.81-.352 1.675-.528 2.592-.528 1.408 0 2.63.427 3.664 1.28 1.035.853 1.797 1.94 2.288 3.264-.725.277-1.53.592-2.416.944-.885.352-1.792.715-2.72 1.088-.928.373-1.85.747-2.768 1.12l-2.56 1.04c.384.875.976 1.58 1.776 2.112.8.533 1.712.8 2.736.8.683 0 1.333-.117 1.952-.352.62-.235 1.14-.555 1.568-.96l1.312 1.248zm-1.088-7.488c-.363-.725-.875-1.296-1.536-1.712-.66-.416-1.397-.624-2.208-.624-.683 0-1.323.133-1.92.4s-1.12.624-1.568 1.072c-.448.448-.8.965-1.056 1.552-.256.587-.384 1.21-.384 1.872 0 .34.032.64.096.896.66-.277 1.365-.565 2.112-.864.747-.3 1.493-.603 2.24-.912.747-.31 1.483-.608 2.208-.896.725-.288 1.397-.55 2.016-.784zm5.12-3.776h1.504l.16 3.296c.47-1.067 1.163-1.93 2.08-2.592.917-.66 2.016-.992 3.296-.992 1.26 0 2.256.352 2.992 1.056.736.704 1.125 1.632 1.168 2.784V71h-1.76v-8.64c-.043-.725-.3-1.344-.768-1.856-.47-.512-1.173-.79-2.112-.832-.683 0-1.312.112-1.888.336-.576.224-1.083.54-1.52.944-.437.405-.78.885-1.024 1.44-.245.555-.368 1.163-.368 1.824V71h-1.76V58.2zm24.384 10.272l1.088 1.312c-.576.47-1.22.832-1.936 1.088-.715.256-1.477.384-2.288.384-.94 0-1.82-.176-2.64-.528-.82-.352-1.536-.827-2.144-1.424-.608-.597-1.088-1.3-1.44-2.112-.352-.81-.528-1.675-.528-2.592s.176-1.787.528-2.608c.352-.82.832-1.53 1.44-2.128.608-.597 1.323-1.072 2.144-1.424.82-.352 1.7-.528 2.64-.528.81 0 1.58.128 2.304.384.725.256 1.376.62 1.952 1.088-.17.235-.352.453-.544.656-.192.203-.384.42-.576.656-.875-.704-1.92-1.056-3.136-1.056-.704 0-1.36.128-1.968.384-.608.256-1.136.603-1.584 1.04-.448.437-.8.96-1.056 1.568-.256.608-.384 1.264-.384 1.968 0 .683.128 1.323.384 1.92s.608 1.12 1.056 1.568c.448.448.976.8 1.584 1.056.608.256 1.264.384 1.968.384 1.216 0 2.26-.352 3.136-1.056zm3.904-14.912c0-.363.133-.667.4-.912s.56-.368.88-.368c.32 0 .608.123.864.368s.384.55.384.912c0 .384-.128.693-.384.928-.256.235-.544.352-.864.352-.32 0-.613-.117-.88-.352s-.4-.544-.4-.928zM218.888 71h-1.76V58.2h1.76V71zm6.176 0h-1.76V46.488h1.76V71zm11.168-11.584l-.96 1.248c-.17-.235-.507-.453-1.008-.656-.5-.203-1.008-.304-1.52-.304-.213 0-.443.032-.688.096-.245.064-.47.165-.672.304-.203.14-.373.32-.512.544-.14.224-.208.496-.208.816 0 .49.15.88.448 1.168.3.288.672.54 1.12.752.448.213.933.416 1.456.608.523.192 1.008.427 1.456.704.448.277.82.635 1.12 1.072.3.437.448.997.448 1.68 0 1.067-.363 1.968-1.088 2.704-.725.736-1.76 1.104-3.104 1.104-.725 0-1.467-.128-2.224-.384-.757-.256-1.37-.66-1.84-1.216.085-.085.192-.203.32-.352l.352-.416c.107-.128.197-.24.272-.336.075-.096.123-.144.144-.144.064.107.203.224.416.352.213.128.46.25.736.368.277.117.576.22.896.304.32.085.63.128.928.128.256 0 .528-.037.816-.112.288-.075.555-.197.8-.368.245-.17.443-.384.592-.64.15-.256.224-.565.224-.928 0-.49-.15-.88-.448-1.168-.3-.288-.672-.54-1.12-.752-.448-.213-.94-.41-1.472-.592-.533-.18-1.024-.41-1.472-.688-.448-.277-.82-.64-1.12-1.088-.3-.448-.448-1.024-.448-1.728 0-.64.117-1.18.352-1.616.235-.437.533-.8.896-1.088.363-.288.773-.496 1.232-.624.46-.128.9-.192 1.328-.192.555 0 1.163.117 1.824.352.66.235 1.237.597 1.728 1.088z" fill="#EEE3FE"/></g></svg>